<svg width="60" height="60" viewBox="0 0 60 60" fill="none" xmlns="http://www.w3.org/2000/svg">
<path d="M28.8126 0C29.5929 0 30.3733 0 31.1552 0C31.2637 0.0366721 31.3693 0.0909469 31.4808 0.105616C34.6141 0.514877 37.1841 1.95242 39.2788 4.30531C42.8521 8.31724 43.2848 14.7935 40.2073 19.1913C39.5546 20.1242 38.7639 20.9603 38.0217 21.8595C38.0715 21.8801 38.1537 21.9182 38.2402 21.9475C40.4934 22.6868 42.5074 23.8354 44.2677 25.4329C44.4055 25.5575 44.6931 25.5971 44.8911 25.5619C48.0302 25.0089 51.1928 24.739 54.3789 24.717C55.7519 24.7067 56.4472 25.3815 56.4516 26.7398C56.456 28.3402 56.4619 29.9406 56.4457 31.5395C56.4413 31.8915 56.525 32.0778 56.8726 32.2421C58.737 33.1252 59.7976 34.6229 59.9311 36.6765C60.022 38.0745 60.0235 39.49 59.9296 40.888C59.7932 42.9181 58.7385 44.4011 56.9019 45.2827C56.5338 45.4588 56.4399 45.6509 56.4443 46.0265C56.4633 47.5681 56.4531 49.1098 56.4516 50.6515C56.4516 52.1844 55.8414 52.8064 54.2924 52.8299C51.0681 52.8812 47.8659 53.1614 44.7077 53.8303C40.1222 54.7999 35.8243 56.5044 31.9297 59.1125C30.5479 60.0381 29.4375 60.0777 28.0571 59.1257C25.3492 57.2584 22.3583 55.9206 19.2309 54.8952C14.7583 53.4284 10.1464 52.8929 5.46415 52.8255C4.19529 52.8064 3.51906 52.1155 3.51466 50.854C3.50879 49.2345 3.50292 47.6151 3.52053 45.9956C3.52493 45.6392 3.42811 45.4573 3.08926 45.2915C2.60519 45.0554 2.14459 44.7444 1.72946 44.3982C0.742246 43.5768 0.296313 42.4399 -0.00146484 41.2312C-0.00146484 39.5912 -0.00146484 37.9513 -0.00146484 36.3127C0.0366742 36.2042 0.0850814 36.1 0.110018 35.9886C0.509011 34.2136 1.53143 32.9506 3.18314 32.1776C3.34597 32.1013 3.49559 31.805 3.49852 31.6084C3.52346 29.989 3.51026 28.3696 3.51319 26.7501C3.51613 25.3888 4.21143 24.7126 5.5815 24.7229C8.76757 24.7449 11.9302 25.0163 15.0708 25.5649C15.2805 25.6015 15.5842 25.537 15.7367 25.4006C16.9513 24.3107 18.2891 23.41 19.7692 22.7309C20.488 22.4008 21.2332 22.1309 22.1764 21.7495C21.927 21.5925 21.7407 21.5133 21.6028 21.3828C19.6093 19.5037 18.3625 17.2242 17.8843 14.5178C16.8501 8.65316 20.1667 2.83402 25.7702 0.789184C26.7516 0.426864 27.7975 0.256705 28.8126 0ZM7.02785 28.2771C7.02785 29.4785 7.01611 30.6447 7.04398 31.8109C7.04692 31.9429 7.23761 32.1218 7.38283 32.1923C9.47315 33.2015 10.5014 34.8796 10.5381 37.1797C10.5542 38.1742 10.5381 39.1702 10.541 40.1648C10.5498 42.5602 9.53475 44.3175 7.34176 45.3605C7.20387 45.4265 7.04398 45.6275 7.04105 45.7697C7.01611 46.9374 7.02785 48.105 7.02785 49.3475C14.5456 49.5528 21.6263 51.2882 28.1935 55.0551C28.2111 54.8776 28.2258 54.8014 28.2258 54.7265C28.2258 48.0918 28.2302 41.4571 28.2126 34.8238C28.2126 34.6273 28.0395 34.3574 27.8664 34.2474C21.5309 30.2486 14.5618 28.4429 7.02931 28.2757L7.02785 28.2771ZM52.937 28.2962C52.8181 28.2771 52.7624 28.2581 52.7081 28.2595C49.9181 28.374 47.1457 28.6541 44.4114 29.238C40.0636 30.168 36.0062 31.8182 32.2231 34.152C31.8607 34.375 31.7287 34.5965 31.7302 35.0219C31.7449 41.4806 31.7405 47.9393 31.7405 54.398V55.0683C35.0424 53.1878 38.4368 51.7913 42.0087 50.8496C45.5776 49.9078 49.2243 49.4619 52.9399 49.3357C52.9399 48.1021 52.9546 46.9521 52.9223 45.8035C52.9179 45.6392 52.7155 45.4118 52.5482 45.3297C50.5401 44.3351 49.5015 42.7186 49.4326 40.4919C49.3988 39.4005 49.415 38.3062 49.4282 37.2134C49.4546 34.8884 50.4843 33.1927 52.604 32.1835C52.7389 32.1189 52.9208 31.962 52.9238 31.8461C52.9472 30.6623 52.9384 29.4771 52.9384 28.2947L52.937 28.2962ZM38.7654 12.4304C38.7771 7.54712 34.84 3.53666 30.0154 3.51466C25.1967 3.49265 21.2288 7.47818 21.2009 12.3658C21.173 17.1992 25.1145 21.1774 29.9509 21.198C34.7842 21.217 38.7551 17.2682 38.7654 12.4319V12.4304ZM40.1809 26.6958C39.8215 26.4861 39.578 26.3335 39.3257 26.1971C37.5068 25.2114 35.5602 24.7229 33.4949 24.7141C31.1537 24.7038 28.8126 24.7097 26.4714 24.7141C24.7111 24.717 23.0272 25.0852 21.4239 25.8054C20.8943 26.0431 20.3956 26.3526 19.8103 26.668C19.9834 26.7619 20.0303 26.7985 20.0817 26.8147C23.4599 27.887 26.6504 29.3626 29.6766 31.2065C29.8452 31.3092 30.187 31.252 30.3895 31.1522C32.6411 30.0433 34.8664 28.88 37.1327 27.8019C38.0569 27.3618 39.0632 27.0963 40.1795 26.6988L40.1809 26.6958ZM7.02491 38.8094C7.02491 38.2241 7.03812 37.6388 7.02198 37.0535C6.99411 36.0106 6.23573 35.2478 5.25438 35.2566C4.29504 35.2654 3.5396 36.0135 3.51906 37.0256C3.49706 38.1772 3.49852 39.3287 3.51906 40.4802C3.53666 41.5231 4.30384 42.2859 5.28519 42.2756C6.26653 42.2668 6.99998 41.5011 7.02345 40.4494C7.03518 39.9037 7.02491 39.3565 7.02491 38.8094ZM52.9399 38.7624C52.9399 39.3477 52.9238 39.9345 52.9428 40.5183C52.9766 41.5246 53.7305 42.2727 54.6899 42.2756C55.6492 42.2786 56.4223 41.5319 56.4428 40.5271C56.4677 39.3565 56.4663 38.1845 56.4428 37.0139C56.4223 36.0062 55.6566 35.258 54.6972 35.2566C53.7379 35.2537 52.978 36.0003 52.9428 37.0051C52.9223 37.5904 52.9384 38.1757 52.9384 38.761L52.9399 38.7624Z" fill="#0B0707"/>
</svg>
