<svg width="70" height="42" viewBox="0 0 70 42" fill="none" xmlns="http://www.w3.org/2000/svg">
<path d="M35.1167 2.77477C36.4908 2.77477 38.1099 2.93655 38.9708 3.15786C41.6715 3.87216 44.3814 5.24122 48.3214 7.88168C48.3229 7.88168 48.326 7.88473 48.3275 7.88626C48.7181 8.14725 49.0567 8.37924 49.3493 8.58834C47.1066 9.26753 45.1887 10.1909 43.6446 11.3356C42.9522 11.8485 42.6933 11.8485 42.5539 11.8485C42.4421 11.8485 42.3073 11.8317 42.151 11.7981C42.1372 11.795 42.125 11.792 42.1112 11.7905C41.166 11.6027 39.8195 10.951 38.8345 10.2062C37.6611 9.30264 37.393 9.15001 37.2919 9.09201C37.2659 9.07828 37.2414 9.06301 37.2153 9.04928C36.7971 8.82949 36.3192 8.7135 35.832 8.7135C34.1945 8.7135 32.7974 10.0215 32.2674 10.5923C30.1779 12.8207 28.4239 16.3708 29.2113 19.2845C29.6586 20.9283 30.6574 22.0211 32.2643 22.627C33.4898 23.0895 35.181 23.3108 37.6856 23.5367C37.6887 23.5367 37.6917 23.5367 37.6948 23.5367C40.6697 23.7946 42.7469 24.1502 44.2313 24.6554C45.5272 25.095 46.4127 25.6506 47.1939 26.5098C47.2 26.516 47.2046 26.5221 47.2108 26.5282C47.9292 27.3035 48.254 28.1781 48.1039 28.9275C47.9445 29.7211 47.3012 30.1683 46.7864 30.4034C46.7481 30.4202 46.7344 30.4247 46.7359 30.4247C46.3024 30.5499 43.5726 30.5987 40.4123 30.6537C40.4077 30.6537 40.4031 30.6537 40.3986 30.6537C36.2288 30.7498 32.5538 30.9177 31.0373 31.0826C31.0373 31.0826 31.0342 31.0826 31.0327 31.0826C29.487 31.252 27.6794 31.3466 25.9392 31.3466C24.3568 31.3466 22.9797 31.2657 22.1632 31.1238C22.1632 31.1238 22.1601 31.1238 22.1586 31.1238C19.7045 30.7025 18.646 30.2553 15.8703 28.4604C14.0029 27.2547 12.7728 26.5358 11.7863 26.0947V17.6254C11.7863 13.9501 11.794 11.299 11.8032 9.62621C13.3902 9.39269 15.2315 9.07065 16.1537 8.86155C19.1408 8.19456 21.6347 7.34596 26.4111 5.37096L26.4172 5.3679C30.0875 3.83858 32.1234 3.13649 33.6782 2.86329C33.6782 2.86329 33.6813 2.86329 33.6828 2.86329C33.8299 2.83734 34.2634 2.77629 35.1197 2.77629M35.1167 0.152627C34.3783 0.152627 33.7089 0.19231 33.2171 0.280834C31.48 0.587615 29.3813 1.29123 25.4 2.94876C20.7324 4.87797 18.3978 5.67163 15.5746 6.30198C13.9815 6.66219 9.89291 7.29254 9.2051 7.29254C9.16834 7.29254 9.15149 11.9431 9.15149 17.6224V27.972L9.91129 28.1888C10.8519 28.4589 12.1187 29.1625 14.4349 30.6583C17.4757 32.6241 18.8681 33.2178 21.7082 33.7047C22.7223 33.8802 24.2542 33.9657 25.9346 33.9657C27.7024 33.9657 29.6372 33.8711 31.3161 33.6864C32.8173 33.5231 36.5628 33.3613 40.4537 33.2728C46.6057 33.1644 47.1127 33.1293 47.8725 32.7859C51.1477 31.2901 51.7451 27.5584 49.1394 24.7455C47.0392 22.4362 44.144 21.4625 37.9185 20.9222C33.1237 20.4887 32.1648 20.1285 31.7481 18.5961C31.3146 16.992 32.3639 14.3226 34.1899 12.3766C34.7674 11.7538 35.4521 11.3341 35.8274 11.3341C35.8872 11.3341 35.9393 11.3448 35.9806 11.3677C36.1063 11.4394 36.6684 11.8546 37.2291 12.2865C38.5128 13.2603 40.2331 14.089 41.5903 14.3592C41.9274 14.4324 42.2445 14.4691 42.5493 14.4691C43.4562 14.4691 44.2619 14.1409 45.2086 13.4404C46.6195 12.3949 48.447 11.5478 50.6728 10.9342C53.6216 10.1222 53.6584 10.1055 53.6584 9.45527C53.6584 8.6265 52.5187 7.52606 49.7858 5.70521C45.5885 2.89229 42.6381 1.41486 39.6341 0.621193C38.5082 0.329675 36.6593 0.152627 35.1121 0.152627H35.1167Z" fill="#0B0707"/>
<path d="M25.9362 34.1214C24.1745 34.1214 22.6641 34.0283 21.6837 33.8573C18.8589 33.3735 17.4205 32.7706 14.3522 30.788C11.9885 29.2602 10.7722 28.5963 9.8684 28.3368L8.99677 28.0895V17.6254C8.99677 14.6919 9.00136 12.169 9.01055 10.3298C9.01515 9.39269 9.02128 8.63413 9.0274 8.10909C9.03557 7.46501 9.0943 7.14296 9.20357 7.14296C9.84848 7.14296 13.8712 6.53245 15.5394 6.15546C18.3504 5.52664 20.7309 4.71466 25.3403 2.80987C29.2665 1.17218 31.3942 0.447198 33.1896 0.129733C33.6675 0.0442619 34.3339 0 35.1151 0C36.7496 0 38.5833 0.190784 39.677 0.474671C42.701 1.27291 45.6544 2.75187 49.8747 5.58006C52.6734 7.44516 53.8147 8.5685 53.8147 9.45679C53.8147 10.2291 53.6982 10.2611 50.7172 11.0823C48.5358 11.6821 46.7144 12.517 45.3036 13.564C44.3002 14.3073 43.4776 14.6232 42.5524 14.6232C42.2399 14.6232 41.9151 14.5866 41.5612 14.5103C40.204 14.2401 38.4669 13.4144 37.1403 12.4101C36.5627 11.9645 36.022 11.5661 35.9086 11.502C35.8949 11.4944 35.8657 11.4898 35.8305 11.4898C35.5379 11.4898 34.9053 11.8378 34.3063 12.4834C32.514 14.3943 31.4785 17.0057 31.8997 18.5595C32.295 20.014 33.1972 20.3452 37.9368 20.7726C44.2665 21.322 47.1235 22.3004 49.2573 24.6447C50.587 26.0794 51.1615 27.8392 50.8336 29.4708C50.5288 30.9864 49.5009 32.2135 47.9415 32.9263C47.1464 33.285 46.6578 33.317 40.4614 33.4269C36.4279 33.52 32.7607 33.6864 31.3375 33.8405C29.6954 34.0206 27.7775 34.1214 25.9392 34.1214H25.9362ZM9.30467 27.8575L9.95418 28.0422C10.8902 28.3109 12.1279 28.9855 14.5192 30.5316C17.5798 32.5096 18.9279 33.0759 21.7358 33.5567C22.7009 33.7245 24.1929 33.8161 25.9362 33.8161C27.6794 33.8161 29.6693 33.7169 31.3008 33.5368C32.7545 33.3796 36.3468 33.2163 40.4522 33.1217C46.5291 33.0148 47.079 32.9782 47.8113 32.6485C49.2803 31.977 50.2454 30.8277 50.5303 29.4098C50.8382 27.8743 50.2914 26.2138 49.0276 24.8493C46.9534 22.569 44.147 21.6166 37.9062 21.0748C33.041 20.6352 32.0391 20.2475 31.601 18.6373C31.1553 16.989 32.2214 14.2539 34.0796 12.2728C34.6755 11.6302 35.3955 11.1815 35.829 11.1815C35.9148 11.1815 35.9914 11.1983 36.0542 11.2318C36.2043 11.3173 36.8048 11.766 37.3241 12.1659C38.6155 13.1443 40.3036 13.9471 41.621 14.2096C41.9565 14.2813 42.2598 14.3164 42.5508 14.3164C43.4041 14.3164 44.1731 14.0173 45.1198 13.3167C46.5613 12.2483 48.4179 11.3967 50.6345 10.7862C53.5068 9.99557 53.5068 9.98488 53.5068 9.45527C53.5068 8.69213 52.3686 7.60847 49.7016 5.83189C45.5119 3.02507 42.5845 1.5568 39.5974 0.767716C38.5266 0.489934 36.7251 0.303728 35.1136 0.303728C34.3492 0.303728 33.7012 0.346464 33.2417 0.428883C31.4693 0.741769 29.3599 1.46217 25.4567 3.08765C20.8289 5.00007 18.4346 5.81663 15.6053 6.45003C14.127 6.78429 10.3479 7.37801 9.3445 7.43906C9.31846 8.17778 9.30161 12.1293 9.30161 17.6224V27.856L9.30467 27.8575ZM25.9362 31.4977C24.3446 31.4977 22.9582 31.4153 22.1341 31.2733C19.6494 30.8475 18.5817 30.3957 15.7845 28.5871C13.888 27.3615 12.6733 26.6579 11.7204 26.2321L11.63 26.1909V17.6224C11.63 13.3488 11.6392 10.9129 11.6469 9.62316V9.4919L11.7771 9.47206C13.381 9.23548 15.207 8.91496 16.1169 8.71044C19.0948 8.04499 21.5811 7.19943 26.3498 5.22901C30.037 3.69358 32.082 2.98844 33.6491 2.71219C33.8039 2.68472 34.2481 2.62214 35.1167 2.62214C36.4999 2.62214 38.1375 2.78545 39.0091 3.00981C41.7282 3.72869 44.4503 5.10386 48.4072 7.755C48.7855 8.00683 49.1302 8.2434 49.4381 8.46319L49.6909 8.64329L49.3937 8.73334C47.1694 9.40643 45.2653 10.3237 43.735 11.4562C43.0012 11.998 42.7101 11.998 42.5524 11.998C42.4298 11.998 42.2843 11.9797 42.1173 11.9446L42.0805 11.937C41.1155 11.7447 39.7414 11.0823 38.7411 10.3252C37.5753 9.42779 37.3134 9.27822 37.2153 9.22175C37.1908 9.20801 37.1663 9.19427 37.1418 9.18206C36.7466 8.97449 36.2931 8.86307 35.8305 8.86307C34.2512 8.86307 32.8909 10.1436 32.3792 10.6931C30.3189 12.8909 28.5863 16.3861 29.3584 19.2417C29.7919 20.8336 30.76 21.8944 32.3179 22.4805C33.5281 22.9368 35.2071 23.1551 37.6979 23.381C40.6942 23.642 42.7821 23.9991 44.2788 24.5074C45.6008 24.9561 46.5061 25.5239 47.3057 26.403L47.3211 26.4198C48.0732 27.2318 48.4118 28.1552 48.2524 28.9534C48.087 29.7791 47.4421 30.2538 46.9075 30.5102L46.9105 30.5285L46.7757 30.5667C46.3453 30.6903 44.0796 30.7376 40.4185 30.8017L40.397 30.6491L40.4001 30.8017C36.2334 30.8979 32.5646 31.0658 31.0511 31.2306C29.4962 31.4016 27.6825 31.4962 25.9377 31.4962L25.9362 31.4977ZM11.9364 25.994C12.8892 26.429 14.0994 27.1341 15.9515 28.3307C18.7058 30.1103 19.7535 30.5545 22.1831 30.9711C22.9965 31.1116 24.3629 31.1925 25.9377 31.1925C27.6718 31.1925 29.4748 31.0994 31.0143 30.9299C32.5401 30.7651 36.2196 30.5957 40.394 30.4995H40.4093C43.4117 30.4461 46.2442 30.3957 46.6838 30.2782C46.6915 30.2752 46.7022 30.2706 46.7221 30.2614C47.2016 30.0416 47.8051 29.625 47.9522 28.8939C48.0931 28.1918 47.7822 27.3661 47.0974 26.6274L47.079 26.6075C46.3177 25.7696 45.4507 25.2278 44.1807 24.7974C42.7086 24.2968 40.6437 23.9442 37.681 23.6862C35.1534 23.4573 33.4531 23.2345 32.2107 22.7674C30.5548 22.1432 29.5253 21.0168 29.0643 19.3226C28.2616 16.354 30.0385 12.7459 32.1556 10.487C32.6948 9.90857 34.1317 8.55934 35.832 8.55934C36.3437 8.55934 36.8461 8.68145 37.2858 8.91344C37.3134 8.9287 37.3409 8.94244 37.367 8.9577C37.4711 9.01723 37.7469 9.17443 38.928 10.0841C39.8946 10.8152 41.2166 11.4547 42.1403 11.6394L42.1832 11.6485C42.3287 11.6806 42.4528 11.6958 42.5539 11.6958C42.6672 11.6958 42.9016 11.6958 43.5542 11.2135C45.0432 10.11 46.8768 9.20954 49.0092 8.53492C48.7717 8.36856 48.5144 8.19456 48.2433 8.01446C44.3109 5.37859 41.6149 4.01715 38.9326 3.30744C38.0839 3.08918 36.48 2.92892 35.1182 2.92892C34.2741 2.92892 33.8513 2.98844 33.7089 3.01286C32.1617 3.28607 30.135 3.9851 26.4769 5.50985C21.6837 7.49095 19.1852 8.34109 16.1874 9.01112C15.2958 9.21259 13.5342 9.52242 11.9563 9.75899C11.9487 11.0792 11.9395 13.4923 11.9395 17.6254V25.997L11.9364 25.994Z" fill="#0B0707"/>
<path d="M4.53778 7.07433C5.0004 7.07433 5.58711 7.07891 6.23356 7.08654C6.76205 7.09569 8.09172 7.12011 8.52524 7.21474C8.56506 7.25595 8.6294 7.32769 8.73051 7.44979C8.73663 7.45742 8.74429 7.46658 8.75195 7.47421C8.8071 7.54747 8.90054 7.71689 8.9465 7.82831C9.07977 9.06459 9.0476 15.9405 9.03535 18.5687L8.9848 28.4788L8.83927 28.7108C8.72897 28.8863 8.60949 29.0145 8.48388 29.0908C8.43945 29.1137 8.41341 29.1244 8.39962 29.1305C8.09018 29.1916 6.7835 29.1916 5.9134 29.1916C5.0433 29.1916 3.73508 29.1916 3.42717 29.129C3.41339 29.1229 3.38735 29.1107 3.34292 29.0878C3.21731 29.0115 3.09782 28.8848 2.98906 28.7093L2.842 28.4757L2.79145 18.4954V17.9872C2.77153 14.0998 2.76081 11.531 2.80064 9.83078C2.83587 8.35792 2.91247 7.77031 2.96149 7.53679C3.00591 7.4971 3.05646 7.45132 3.09935 7.41316L3.15297 7.36584C3.15297 7.36584 3.1591 7.35974 3.16216 7.35669C3.23569 7.28953 3.3322 7.22085 3.40879 7.17353C3.54972 7.14301 3.6784 7.11096 3.79636 7.07891C3.94341 7.07585 4.17779 7.07433 4.53931 7.07433M4.53931 4.45219C3.83925 4.45219 3.35365 4.46135 3.28931 4.48271C3.19893 4.53613 2.89102 4.60787 2.6015 4.66281C2.33036 4.73455 1.78654 5.05964 1.38979 5.41985C0.0861679 6.5905 0.103019 6.4104 0.158166 18.5076L0.211781 29.2358L0.754063 30.1012C1.11558 30.6782 1.56902 31.1116 2.09292 31.4001C2.83587 31.7786 3.10701 31.8137 5.91033 31.8137C8.71365 31.8137 8.98633 31.7771 9.72775 31.4001C10.2532 31.1116 10.7051 30.6782 11.0666 30.1012L11.6089 29.2358L11.6625 18.5809C11.6993 10.9724 11.6625 7.70926 11.4986 7.18727C11.3898 6.77365 11.0651 6.14177 10.7556 5.78157C9.81507 4.64602 9.3984 4.51934 6.26726 4.46592C5.63 4.45829 5.02798 4.45371 4.53318 4.45371L4.53931 4.45219Z" fill="#0B0707"/>
<path d="M5.91187 31.9663C3.09782 31.9663 2.80677 31.9343 2.02398 31.5359C1.46485 31.2291 0.996098 30.7743 0.625386 30.1821L0.0585944 29.2801V29.2373L0.00191528 17.9994C-0.0317858 10.3355 0.379266 6.1199 1.23507 5.35269L1.28562 5.3069C1.67472 4.95433 2.24764 4.59871 2.56167 4.51477C2.94157 4.44303 3.16063 4.38045 3.20965 4.35145L3.24029 4.33772C3.28318 4.32398 3.35364 4.29956 4.53778 4.29956C5.03411 4.29956 5.63613 4.30414 6.27339 4.31177C9.43057 4.36672 9.90392 4.50866 10.8782 5.68389C11.1922 6.0502 11.5323 6.69428 11.6502 7.14911C11.8142 7.6711 11.8571 10.5588 11.8188 18.5824L11.7651 29.2801L11.1983 30.1821C10.8261 30.7743 10.3574 31.2291 9.80281 31.5329C9.01697 31.9343 8.72591 31.9663 5.91033 31.9663H5.91187ZM0.364968 29.1916L0.884272 30.0203C1.22741 30.5667 1.6594 30.9865 2.16798 31.2658C2.85579 31.6168 3.0534 31.6611 5.91187 31.6611C8.77033 31.6611 8.96948 31.6168 9.66035 31.2642C10.1643 30.988 10.5948 30.5683 10.9395 30.0203L11.4588 29.1916L11.5124 18.5794C11.543 11.9828 11.5277 7.78252 11.3561 7.23153C11.2474 6.81639 10.9287 6.21198 10.6438 5.87925C9.73082 4.77576 9.36317 4.67044 6.27032 4.61703C5.6346 4.60939 5.03257 4.60482 4.53778 4.60482C3.61559 4.60482 3.39347 4.62008 3.33986 4.62771C3.20046 4.69639 2.8803 4.76507 2.62907 4.81239C2.39929 4.87344 1.88152 5.17869 1.49089 5.53279L1.43881 5.5801C0.650407 6.28728 0.273567 10.4265 0.308289 17.9979L0.364968 29.1916ZM5.91187 29.3442C4.75684 29.3442 3.69372 29.3396 3.39501 29.2801L3.36284 29.2694C3.34752 29.2633 3.32148 29.2496 3.27246 29.2267C3.11467 29.132 2.97987 28.9886 2.85732 28.7932L2.68728 28.5231V28.4803L2.6352 17.9902C2.61835 14.1013 2.60609 11.5326 2.64745 9.83078C2.68269 8.38234 2.75622 7.76878 2.8129 7.50931L2.82362 7.462L2.85885 7.42842C2.90328 7.38874 2.95383 7.34142 2.99825 7.30327L3.05187 7.25595C3.1591 7.15827 3.28012 7.07891 3.3276 7.04838L3.35058 7.03312L3.37662 7.02701C3.42105 7.01785 3.46394 7.00717 3.5053 6.99801C3.59415 6.97664 3.67687 6.9568 3.75499 6.93391L3.79329 6.9278C3.94188 6.92475 4.17626 6.92323 4.53931 6.92323C5.00194 6.92323 5.58864 6.9278 6.23662 6.93544C7.10826 6.9507 8.16065 6.9797 8.55894 7.06669L8.60489 7.07738L8.63706 7.11096C8.69068 7.16743 8.76114 7.24832 8.84846 7.35363L8.86684 7.37653C8.94037 7.47268 9.03994 7.65889 9.0859 7.77031L9.09662 7.81304C9.23143 9.06001 9.19773 15.9694 9.18547 18.5702L9.13492 28.5231L8.96641 28.7917C8.84233 28.9886 8.706 29.132 8.56047 29.2206C8.50226 29.2511 8.47468 29.2633 8.45936 29.2694L8.4272 29.2801C8.12695 29.3396 7.06536 29.3442 5.91033 29.3442H5.91187ZM3.4716 28.9825C3.79636 29.0389 5.11683 29.0389 5.91187 29.0389C6.70691 29.0389 8.02585 29.0389 8.35213 28.984C8.36592 28.9779 8.38583 28.9672 8.41341 28.9535C8.50685 28.8955 8.60949 28.7856 8.70753 28.6284L8.83008 28.433L8.88063 18.5672C8.89288 15.9862 8.92505 9.15616 8.79484 7.86646C8.75042 7.76573 8.67229 7.62379 8.6294 7.56731L8.61255 7.54747C8.53596 7.45589 8.48388 7.39484 8.44711 7.35516C7.98295 7.26969 6.71763 7.24832 6.23203 7.23916C5.58711 7.23153 5.00194 7.22695 4.53931 7.22695C4.19464 7.22695 3.96639 7.22848 3.81933 7.23153C3.71057 7.26206 3.59568 7.28953 3.47007 7.317C3.39194 7.36737 3.31688 7.42384 3.26633 7.46963L3.20199 7.52763C3.17135 7.5551 3.13612 7.58715 3.10242 7.61768C3.05799 7.85425 2.98753 8.43882 2.95383 9.83536C2.91247 11.5341 2.92472 14.1013 2.94157 17.9872L2.99366 28.433L3.11774 28.6299C3.21424 28.784 3.31688 28.8955 3.42105 28.958C3.44249 28.9672 3.45934 28.9764 3.4716 28.9825Z" fill="#0B0707"/>
<path d="M53.8438 12.4681C50.659 12.81 47.5462 14.1455 45.2484 16.1465C44.8594 16.4899 44.2466 17.1477 43.7334 17.7475C43.1804 18.3931 43.2785 19.3684 43.9448 19.8965C44.2282 20.0827 45.2193 20.4109 45.4108 20.1315C46.2794 18.8876 48.1605 17.3553 49.7537 16.5616C52.3946 15.2826 54.6036 14.9575 57.4084 15.4978C63.9235 16.7417 68.1759 23.1963 66.7819 29.7227C66.0773 33.0408 63.5619 36.249 60.5396 37.728C59.6894 38.1416 58.5129 38.6117 57.9155 38.7551C56.5399 39.097 53.6814 39.097 52.3058 38.7551C49.7904 38.1248 46.932 36.249 45.5196 34.3198C45.2561 33.9459 44.746 33.8451 44.3584 34.0878L43.8192 34.4266L43.4209 34.6754C42.9874 34.9471 42.8863 35.5332 43.2049 35.9331L43.3122 36.0674C45.4124 38.717 48.0533 40.4844 51.2564 41.4048C53.2831 42 56.9381 41.9817 58.9832 41.4048C64.141 39.9258 68.0488 35.9773 69.4244 30.8216C69.9314 28.9656 69.9667 25.6292 69.5332 23.845C67.94 17.4087 62.5295 12.8833 55.9256 12.4864C55.1305 12.4315 54.19 12.4132 53.8453 12.4681H53.8438Z" fill="#0B0707"/>
<path d="M55.0907 42C53.6569 42 52.2353 41.8504 51.2151 41.5513C47.9936 40.6264 45.2944 38.8131 43.1942 36.162L43.087 36.0277C42.9077 35.8033 42.8327 35.5133 42.8817 35.2295C42.9307 34.9456 43.0977 34.6968 43.3413 34.5457L44.2788 33.9581C44.7353 33.6711 45.3373 33.7902 45.6467 34.2313C47.0453 36.1422 49.864 37.9829 52.3441 38.6056C53.689 38.9398 56.5337 38.9398 57.8787 38.6056C58.4424 38.4697 59.5806 38.0241 60.4722 37.5891C63.4639 36.1254 65.9394 32.9523 66.6318 29.6891C67.3028 26.5511 66.687 23.3444 64.8993 20.6612C63.1376 18.0161 60.4676 16.235 57.3793 15.6458C54.6419 15.1177 52.4528 15.423 49.8211 16.6974C48.2249 17.4926 46.3836 19.0067 45.538 20.217C45.253 20.6352 44.1011 20.1804 43.8621 20.0232C43.4945 19.7332 43.2739 19.3303 43.231 18.8785C43.1866 18.4282 43.3244 17.9917 43.6185 17.6483C44.0735 17.1172 44.7138 16.4135 45.1489 16.032C47.4651 14.0158 50.6268 12.662 53.8254 12.317C54.2007 12.259 55.1704 12.2819 55.9363 12.3338C59.2068 12.5307 62.2415 13.7227 64.7078 15.7832C67.1726 17.8421 68.8928 20.6169 69.6818 23.8083C70.1291 25.649 70.077 29.0114 69.5715 30.8613C68.1866 36.0582 64.2436 40.054 59.0261 41.5513C57.966 41.8504 56.523 42 55.0907 42ZM44.818 34.1076C44.6893 34.1076 44.5591 34.1427 44.4412 34.216L43.5036 34.8051C43.3336 34.912 43.2172 35.086 43.1835 35.2829C43.1498 35.4798 43.2019 35.6828 43.3275 35.8384L43.4347 35.9727C45.4951 38.5735 48.1406 40.3516 51.3009 41.2582C53.2617 41.8336 56.9044 41.8336 58.9434 41.2582C64.0567 39.7915 67.9201 35.8751 69.2773 30.7834C69.7721 28.9717 69.8242 25.6826 69.3861 23.8816C67.819 17.5476 62.4069 13.0298 55.9179 12.6391C55.0539 12.5795 54.1746 12.5719 53.8698 12.6192H53.8621C50.7233 12.9581 47.6213 14.2844 45.3511 16.2609C45.0033 16.5662 44.4151 17.1889 43.8514 17.8467C43.6124 18.126 43.4991 18.4832 43.5358 18.8495C43.571 19.2173 43.7518 19.547 44.0429 19.7775C44.3492 19.9789 45.1902 20.1865 45.2867 20.0461C46.1599 18.7961 48.0502 17.2408 49.6878 16.4258C52.3854 15.1193 54.6311 14.8079 57.4406 15.3482C60.61 15.9526 63.3505 17.7811 65.1581 20.4948C66.9918 23.2467 67.6229 26.5358 66.9351 29.7547C66.2228 33.1034 63.6814 36.3619 60.61 37.8653C59.8135 38.253 58.6033 38.7475 57.9553 38.9047C56.549 39.2542 53.6799 39.2542 52.2736 38.9047C49.7292 38.2667 46.8401 36.3772 45.4016 34.4114C45.2638 34.216 45.0447 34.1107 44.8211 34.1107L44.818 34.1076Z" fill="#0B0707"/>
<path d="M54.3876 18.471C54.1517 18.706 54.0261 19.0662 54.0261 19.5165C54.0261 20.1117 53.9357 20.2384 53.3015 20.6337C52.0346 21.409 51.3116 22.743 51.3116 24.2754C51.3116 26.2046 52.2338 27.2318 55.4001 28.8008C57.246 29.7196 57.5172 29.973 57.5172 30.7483C57.5172 31.5771 56.7926 32.209 55.6897 32.3173C54.9115 32.3891 54.6403 32.3173 53.7901 31.8304C52.5601 31.1284 52.1434 31.1284 51.474 31.7938C50.4246 32.8576 50.9133 33.9581 52.868 34.8769C53.9004 35.3821 54.0261 35.4904 54.0261 35.9773C54.0261 36.8244 54.5867 37.2212 55.7448 37.2212C56.9029 37.2212 57.4636 36.8244 57.4636 35.869C57.4636 35.3287 57.554 35.202 58.061 34.9852C59.6894 34.3183 60.7755 32.5875 60.7755 30.6399C60.7755 28.549 59.8885 27.5386 56.7941 26.0245C54.7139 25.0156 54.2068 24.5104 54.5316 23.7702C54.9467 22.8865 56.0696 22.8331 57.2828 23.645C58.1698 24.2403 58.948 24.1853 59.527 23.5C60.3772 22.5095 59.9804 21.4808 58.4593 20.6154C57.554 20.1102 57.4651 20.0018 57.4651 19.4432C57.4651 18.5061 56.9581 18.1092 55.7463 18.1092C54.9865 18.1092 54.6603 18.1993 54.3891 18.471H54.3876Z" fill="#0B0707"/>
<path d="M55.7448 37.3754C54.5025 37.3754 53.8729 36.9053 53.8729 35.9789C53.8729 35.5912 53.833 35.521 52.8006 35.0158C51.598 34.4495 50.9255 33.8131 50.8015 33.1232C50.7141 32.6378 50.9041 32.1555 51.3652 31.6885C52.0928 30.9635 52.583 30.9666 53.8667 31.6992C54.697 32.1739 54.9329 32.2349 55.6759 32.1662C56.6854 32.067 57.364 31.4977 57.364 30.7498C57.364 30.0829 57.2016 29.8707 55.3312 28.9397C52.1327 27.3554 51.1569 26.2656 51.1569 24.2784C51.1569 22.6835 51.909 21.3083 53.2188 20.507C53.8147 20.1346 53.8698 20.0507 53.8698 19.5195C53.8698 19.0296 54.0107 18.6312 54.2758 18.3657C54.5837 18.0589 54.9406 17.9597 55.7417 17.9597C57.0362 17.9597 57.6137 18.4175 57.6137 19.4463C57.6137 19.9209 57.6428 19.9896 58.5298 20.4856C59.4596 21.0137 59.985 21.5998 60.0953 22.2287C60.1765 22.6942 60.0233 23.1566 59.6404 23.6038C59.0108 24.3502 58.1407 24.4112 57.194 23.7763C56.5092 23.3184 55.8306 23.1353 55.3281 23.2741C55.0279 23.3566 54.8058 23.5473 54.6679 23.8404C54.4198 24.4036 54.6771 24.834 56.8585 25.8917C60.0141 27.4363 60.9256 28.5016 60.9256 30.6445C60.9256 32.6394 59.7966 34.4419 58.1161 35.1302C57.6658 35.3226 57.6137 35.3989 57.6137 35.872C57.6137 36.9129 57.0362 37.3769 55.7417 37.3769L55.7448 37.3754ZM52.4069 31.4504C52.102 31.4504 51.8768 31.6107 51.5827 31.9037C51.1967 32.296 51.0343 32.6882 51.1032 33.0698C51.2074 33.6482 51.8401 34.2267 52.9338 34.741C53.9755 35.2508 54.1792 35.4019 54.1792 35.9789C54.1792 36.4871 54.3569 37.0701 55.7448 37.0701C57.0438 37.0701 57.3104 36.5909 57.3104 35.8705C57.3104 35.2707 57.4329 35.089 57.9997 34.8464C59.5684 34.2038 60.6208 32.5142 60.6208 30.6415C60.6208 28.6222 59.7828 27.6591 56.7252 26.1634C54.7797 25.2201 53.9801 24.6417 54.3906 23.7107C54.5668 23.3352 54.864 23.0818 55.2485 22.975C55.8444 22.8102 56.5965 23.004 57.3671 23.5184C58.1897 24.0709 58.876 24.0312 59.409 23.4024C59.7307 23.0269 59.8609 22.6484 59.7966 22.2775C59.7047 21.7509 59.216 21.2228 58.3827 20.7482C57.4728 20.2399 57.3104 20.0964 57.3104 19.4432C57.3104 18.7335 57.0438 18.2619 55.7448 18.2619C54.9574 18.2619 54.7062 18.3687 54.4963 18.5778C54.2865 18.7869 54.1792 19.1089 54.1792 19.5165C54.1792 20.1972 54.0291 20.3605 53.3827 20.7634C52.1633 21.5098 51.4648 22.7888 51.4648 24.2754C51.4648 26.1405 52.3624 27.1249 55.4691 28.6634C57.2537 29.5532 57.6704 29.8509 57.6704 30.7468C57.6704 31.6427 56.8799 32.3524 55.705 32.4669C54.8946 32.5417 54.5959 32.4669 53.7136 31.9602C53.0977 31.6076 52.7117 31.4458 52.4053 31.4458L52.4069 31.4504Z" fill="#0B0707"/>
</svg>
