<svg width="60" height="60" viewBox="0 0 60 60" fill="none" xmlns="http://www.w3.org/2000/svg">
<g filter="url(#filter0_d_331_236)">
<path d="M14.0652 23.638C16.3904 24.225 19.7217 23.6869 24.1177 21.9964C20.8412 20.8283 18.471 18.7347 17.1342 15.5747C16.1418 13.2326 15.9931 10.8045 16.6487 8.33912C17.9386 3.48863 22.3992 0.0390985 27.4294 -3.40266e-05C32.485 -0.0391666 36.9691 3.38298 38.3568 8.25107C39.6427 12.7572 37.9321 18.944 31.751 21.7205C33.9999 22.1901 36.284 22.5364 38.4899 23.1625C40.96 23.863 43.4183 23.6086 45.8825 23.5265C45.9118 23.4482 45.9471 23.4012 45.9392 23.3601C45.6476 21.8027 45.8081 21.5287 47.3132 21.1276C49.1257 20.6424 50.942 20.1708 52.7584 19.6973C53.8681 19.4078 54.3868 19.6856 54.6726 20.7676C56.4321 27.4084 58.1839 34.0531 59.9298 40.6959C60.1549 41.5529 59.8378 42.1673 59.006 42.3942C56.9371 42.9616 54.8605 43.4978 52.7838 44.0319C52.1105 44.2061 51.5957 43.9341 51.2415 43.2962C50.4547 43.8519 49.7226 44.3685 48.9417 44.9202C49.5504 46.4014 49.6052 47.865 48.6461 49.2189C47.6832 50.5768 46.315 51.0777 44.6514 50.929C43.982 53.2535 42.4886 54.4647 40.0635 54.3629C39.7856 54.8932 39.5801 55.4508 39.2395 55.9087C38.4977 56.9046 37.4741 57.4329 36.2155 57.4074C35.8241 57.3996 35.6284 57.4994 35.4502 57.8751C34.4109 60.0606 31.8254 60.587 29.9953 59.0099C29.6117 58.6792 29.2438 58.3271 28.8856 57.9983C28.3395 58.4992 27.8756 59.053 27.2963 59.4325C25.3586 60.7024 22.6536 59.7358 21.8238 57.4818C21.6515 57.0122 21.4401 56.8654 20.9606 56.8204C19.3596 56.6698 18.3633 55.715 17.7879 54.269C14.4997 54.2162 13.2725 52.9659 13.2783 49.6866C10.9003 48.7317 10.0625 46.6655 10.9355 44.3822C10.2583 44.0143 9.5654 43.6367 8.8099 43.2277C8.28731 44.2511 7.49461 44.1376 6.63537 43.8969C4.8523 43.396 3.05945 42.9323 1.27051 42.451C0.103976 42.1379 -0.195486 41.6331 0.117677 40.4611C1.87334 33.8946 3.63097 27.3282 5.39251 20.7637C5.67631 19.7071 6.23413 19.3941 7.31455 19.6778C9.15242 20.1611 10.9883 20.6522 12.8243 21.1452C14.2354 21.5248 14.4625 21.9162 14.1297 23.3601C14.1082 23.4541 14.0886 23.546 14.0671 23.6399L14.0652 23.638ZM26.4938 52.2009C27.5801 52.5374 28.5117 53.1263 28.958 54.1497C29.5491 55.5056 30.7646 56.2217 31.7432 57.1785C32.1229 57.5503 32.6161 57.5014 32.986 57.1042C33.3501 56.7128 33.3344 56.2628 33.0135 55.8402C32.896 55.6856 32.7434 55.5604 32.6024 55.4234C31.3419 54.1986 30.0776 52.9776 28.821 51.7508C28.0851 51.0327 27.9852 50.2736 28.5431 49.7159C29.1107 49.1485 29.8114 49.2424 30.5825 49.9918C31.843 51.2147 33.1035 52.4396 34.3659 53.6644C34.6458 53.9364 34.9179 54.2181 35.2076 54.4803C35.83 55.0399 36.5796 55.0536 37.1061 54.5292C37.6287 54.0107 37.6072 53.2457 37.0454 52.6352C36.9143 52.4924 36.7694 52.3593 36.6305 52.2224C35.1116 50.7392 33.5713 49.2757 32.0896 47.7554C31.7843 47.4423 31.5357 46.9101 31.5592 46.4973C31.5788 46.1607 31.9996 45.6403 32.3186 45.5757C32.7434 45.4896 33.3755 45.6246 33.6868 45.9122C35.4953 47.5871 37.2353 49.3344 39.0007 51.0543C39.2102 51.2578 39.4176 51.473 39.6623 51.6276C40.2925 52.0326 41.1596 51.8956 41.6665 51.3438C42.1793 50.7862 42.2283 49.9331 41.7507 49.3285C41.5569 49.082 41.3064 48.8785 41.0656 48.6711C39.1084 46.9786 37.1472 45.2939 35.1919 43.5995C34.4423 42.9499 34.317 42.2338 34.8298 41.6351C35.3348 41.0442 36.0707 41.0657 36.8242 41.7133C38.5271 43.1749 40.226 44.6443 41.9249 46.1118C42.6824 46.7653 43.4281 47.4345 44.2031 48.0645C44.9567 48.677 45.9197 48.587 46.4873 47.8924C47.0353 47.2212 46.9316 46.3251 46.2309 45.6696C46.1428 45.5855 46.0449 45.5111 45.951 45.4329C40.8954 41.2848 35.8417 37.1348 30.7822 32.9907C29.3358 31.8069 28.0714 31.7658 26.5075 32.8224C25.112 33.7635 23.7223 34.7125 22.3307 35.6595C21.3168 36.3482 20.1992 36.6183 18.9916 36.448C16.2553 36.0626 14.4507 33.5014 15.768 30.944C16.4922 29.5411 17.3514 28.2087 18.1558 26.8488C18.2733 26.6492 18.4279 26.4712 18.5669 26.2794H13.3116C12.9867 27.4886 12.6579 28.7096 12.331 29.9325C11.4131 33.3683 10.4892 36.8022 9.59085 40.2439C9.53409 40.463 9.58498 40.8778 9.72394 40.9581C10.6282 41.4727 11.5696 41.9207 12.5091 42.3942C14.8911 40.5883 17.3162 41.1263 18.6686 43.7658C18.745 43.9145 18.9642 44.073 19.1266 44.0848C21.675 44.253 22.773 45.247 23.1919 47.7965C25.7833 48.7494 26.4312 49.5985 26.4899 52.1989L26.4938 52.2009ZM46.683 26.1346C45.5458 26.1346 44.5202 26.0896 43.5024 26.1444C41.8349 26.2364 40.1888 26.1679 38.5662 25.7433C35.4718 24.9352 32.346 24.3072 29.1518 24.0548C27.2826 23.908 25.4271 23.8571 23.7849 24.9685C21.1035 26.7862 19.2069 29.2437 17.9621 32.2198C17.7135 32.8146 17.9171 33.2607 18.4064 33.6168C19.1599 34.1646 20.1112 34.1568 21.0037 33.564C22.3033 32.6991 23.5912 31.8187 24.881 30.9401C27.6877 29.0226 30.0345 29.1381 32.6788 31.3099C37.3351 35.1332 41.9993 38.9486 46.6497 42.7797C46.9864 43.0575 47.2212 43.1143 47.5912 42.8306C48.4034 42.2083 49.2411 41.6155 50.0945 41.052C50.4468 40.8191 50.4938 40.6039 50.3842 40.2106C49.9575 38.6864 49.5778 37.1505 49.1746 35.6184C48.3408 32.4409 47.5051 29.2633 46.685 26.1346H46.683ZM36.2586 11.233C36.2449 6.43532 32.2482 2.46727 27.4568 2.49467C22.683 2.52206 18.745 6.47053 18.7352 11.2388C18.7254 16.0326 22.7045 20.0182 27.4998 20.0143C32.2971 20.0104 36.2723 16.0247 36.2586 11.233ZM7.5592 22.3427C5.95229 28.3456 4.36103 34.282 2.75999 40.2595C4.11441 40.6254 5.37489 40.9639 6.70779 41.324C8.31471 35.323 9.90401 29.3866 11.507 23.4071C10.1722 23.0471 8.92733 22.7125 7.55725 22.3427H7.5592ZM48.5541 23.3856C50.1376 29.41 51.6995 35.3543 53.2692 41.3298C54.6413 40.9659 55.9037 40.6333 57.2151 40.285C55.6316 34.2586 54.0697 28.3182 52.5 22.3447C51.1456 22.7008 49.9007 23.0295 48.5522 23.3856H48.5541ZM16.8915 51.8937C17.2614 51.7313 17.5687 51.6882 17.7331 51.5102C18.6628 50.5162 19.5886 49.5124 20.4517 48.4617C20.8432 47.9863 20.6768 47.2682 20.2247 46.8788C19.7471 46.4679 19.0738 46.4112 18.6295 46.871C17.6998 47.8337 16.7838 48.8178 15.9676 49.8725C15.7523 50.1523 15.7836 50.7862 15.948 51.1482C16.0988 51.4808 16.5783 51.6628 16.8915 51.8937ZM24.1118 51.4397C23.8534 51.1404 23.6166 50.6336 23.2487 50.5045C22.8709 50.3714 22.2563 50.4712 21.9373 50.7177C21.3521 51.1697 20.8804 51.7841 20.4087 52.3672C19.9878 52.8876 20.0583 53.5861 20.5085 54.0166C20.9743 54.4647 21.7357 54.5038 22.2211 54.0264C22.773 53.4824 23.2761 52.8876 23.7693 52.2889C23.9122 52.1148 23.9513 51.8545 24.1138 51.4397H24.1118ZM16.4041 44.7989C16.2671 44.6307 16.0537 44.1435 15.7034 44.0026C15.3452 43.8578 14.7678 43.9243 14.4331 44.1337C13.9771 44.4193 13.5504 44.8733 13.3234 45.3546C13.1472 45.7303 13.1394 46.3486 13.3429 46.691C13.5269 47.0021 14.0926 47.2271 14.4938 47.2349C15.2023 47.2467 16.4021 45.7929 16.406 44.7989H16.4041ZM26.9283 55.9361C26.9538 55.2786 26.3216 54.6173 25.6483 54.6016C24.975 54.586 24.0961 55.4743 24.0864 56.1767C24.0785 56.797 24.6951 57.4466 25.3292 57.4837C25.9888 57.5229 26.899 56.6404 26.9283 55.9361Z" fill="black"/>
</g>
<defs>
<filter id="filter0_d_331_236" x="-3.99844" y="-0.000366211" width="67.9986" height="67.9976" filterUnits="userSpaceOnUse" color-interpolation-filters="sRGB">
<feFlood flood-opacity="0" result="BackgroundImageFix"/>
<feColorMatrix in="SourceAlpha" type="matrix" values="0 0 0 0 0 0 0 0 0 0 0 0 0 0 0 0 0 0 127 0" result="hardAlpha"/>
<feOffset dy="4"/>
<feGaussianBlur stdDeviation="2"/>
<feComposite in2="hardAlpha" operator="out"/>
<feColorMatrix type="matrix" values="0 0 0 0 0 0 0 0 0 0 0 0 0 0 0 0 0 0 0.25 0"/>
<feBlend mode="normal" in2="BackgroundImageFix" result="effect1_dropShadow_331_236"/>
<feBlend mode="normal" in="SourceGraphic" in2="effect1_dropShadow_331_236" result="shape"/>
</filter>
</defs>
</svg>
