<svg width="17" height="17" viewBox="0 0 17 17" fill="none" xmlns="http://www.w3.org/2000/svg">
<path d="M9.97247 8.5L16.5223 1.95022C16.9638 1.50866 16.9638 0.84632 16.5223 0.404762C16.0807 -0.0367966 15.4184 -0.0367966 14.9768 0.404762L8.42702 6.95455L1.87723 0.331169C1.43568 -0.11039 0.773338 -0.11039 0.331779 0.331169C-0.109779 0.772727 -0.109779 1.43506 0.331779 1.87662L6.88156 8.42641L0.331779 14.9762C-0.109779 15.4177 -0.109779 16.0801 0.331779 16.5216C0.552558 16.7424 0.846931 16.816 1.1413 16.816C1.43568 16.816 1.73005 16.7424 1.95083 16.5216L8.50061 9.97186L15.0504 16.5216C15.2712 16.7424 15.5655 16.816 15.8599 16.816C16.1543 16.816 16.4487 16.7424 16.6694 16.5216C17.111 16.0801 17.111 15.4177 16.6694 14.9762L9.97247 8.5Z" fill="#E52481"/>
</svg>
