<svg width="809" height="667" viewBox="0 0 809 667" fill="none" xmlns="http://www.w3.org/2000/svg">
<g clip-path="url(#clip0_205_363)">
<path d="M364.823 501.451C360.045 501.114 355.108 500.068 350.418 497.87C335.553 490.869 324.28 480.093 316.918 465.399C313.201 457.99 308.281 451.467 303.132 445.051C301.273 442.746 299.327 440.425 298 437.801C294.584 431.137 296.725 425.004 303.556 422.026C307.096 420.484 309.273 418.428 310.14 414.475C311.095 410.204 313.821 408.467 320.298 409.92C322.722 410.47 324.987 411.852 327.27 412.987C334.508 416.567 341.711 420.254 349.71 421.778C355.108 422.806 360.594 423.48 366.062 423.958C371.973 424.472 377.919 424.455 383.83 424.951C387.475 425.252 391.121 425.855 394.66 426.776C398.147 427.698 400.996 429.878 403.102 432.874C406.871 438.209 406.517 444.324 401.58 448.542C398.642 451.059 398.253 453.328 399.793 456.643C404.341 466.515 400.731 474.846 394.466 482.485C393.28 483.939 391.369 484.967 389.617 485.764C387.582 486.704 385.37 487.448 383.157 487.803C379.848 488.352 378.061 489.859 377.07 493.244C375.442 498.881 371.477 501.398 365.602 501.433C365.46 501.433 365.319 501.433 364.841 501.433L364.823 501.451Z" fill="#E5AF24"/>
<path d="M277.489 667C259.809 666.575 245.811 662.764 233.299 654.185C228.362 650.8 224.008 646.794 220.628 641.795C215.585 634.333 214.204 626.18 216.08 617.459C217.991 608.686 223.478 603.439 232.415 602.783C237.122 602.446 241.971 603.244 246.696 603.953C250.306 604.485 253.881 605.531 257.403 606.559C264.605 608.668 271.755 608.934 279.188 607.551C284.568 606.559 290.124 606.24 295.61 606.257C302.441 606.257 308.529 609.022 314.121 612.851C324.085 619.693 329.695 636.301 318.156 648.513C306.406 660.938 291.629 666.256 277.506 666.982L277.489 667Z" fill="#E5AF24"/>
<path d="M274.586 368.054C273.79 375.853 273.348 383.794 272.127 391.628C269.348 409.566 267.207 427.574 265.685 445.653C264.835 455.579 262.942 465.328 259.031 474.545C257.721 477.664 256.235 480.784 254.323 483.549C248.997 491.295 240.75 494.272 231.654 492.039C230.698 491.809 229.742 491.525 228.804 491.224C220.327 488.459 217.461 484.878 217.584 475.998C217.638 471.656 218.239 467.189 219.443 463.006C221.389 456.217 223.796 449.535 226.398 442.959C232.928 426.457 238.679 409.708 241.387 392.125C242.856 382.624 243.475 372.982 244.502 363.393C244.785 360.716 244.979 358.022 245.546 355.399C246.979 348.61 253.368 343.133 261.331 344.658C268.959 346.111 272.534 349.16 273.808 356.906C274.409 360.521 274.339 364.244 274.586 368.037L274.586 368.054Z" fill="#E5AF24"/>
<path d="M208.807 422.416C210.169 422.735 211.125 422.983 212.081 423.196C216.293 424.135 217.567 426.245 215.762 430.251C214.151 433.849 212.346 437.465 210.01 440.602C205.781 446.256 201.162 451.627 196.596 457.015C192.72 461.606 189.712 466.657 187.73 472.347C186.526 475.821 185.234 479.295 183.571 482.556C180.704 488.157 175.572 488.689 171.201 484.045C164.936 477.416 163.609 468.323 167.75 460.046C168.758 458.025 170.068 456.146 171.077 454.126C172.811 450.616 172.687 448.684 169.909 446.096C161.697 438.475 160.352 428.762 161.326 418.393C161.892 412.207 166.139 409.176 172.262 410.151C173.236 410.31 174.227 410.47 175.165 410.789C181.146 412.898 187.34 413.093 193.57 413.111C195.835 413.111 198.082 413.111 200.348 413.093C205.692 413.093 207.763 414.848 208.524 420.077C208.63 420.768 208.701 421.441 208.842 422.381L208.807 422.416Z" fill="#976D00"/>
<path d="M486.986 536.369C486.437 538.07 485.765 541.456 484.313 544.469C482.491 548.28 480.314 551.984 477.854 555.423C464.864 573.644 451.185 591.315 435.841 607.658C427.913 616.095 418.976 623.149 408.712 628.502C401.686 632.171 394.696 635.875 387.635 639.473C386.024 640.289 384.237 640.98 382.467 641.157C378.556 641.547 377.3 639.739 379.264 636.443C380.521 634.316 382.361 632.419 384.29 630.859C386.361 629.193 388.785 627.917 391.156 626.676C403.704 620.1 414.658 611.557 423.86 600.727C429.081 594.577 434.337 588.462 439.664 582.4C449.539 571.18 457.149 558.4 464.917 545.745C467.218 542.005 469.501 538.265 471.89 534.578C472.97 532.912 474.155 531.317 475.465 529.846C477.465 527.595 479.907 526.265 483.004 527.4C485.588 528.339 487.056 531.14 486.968 536.386L486.986 536.369Z" fill="#E5AF24"/>
<path d="M394.625 52.1817C396.059 48.9557 398.572 48.743 400.819 48.2468C409.154 46.4034 417.472 46.7579 425.524 49.5584C430.992 51.4549 436.248 53.9364 441.575 56.2229C444.566 57.4991 447.504 58.9171 450.459 60.2464C460.387 64.6776 470.563 65.0853 480.597 61.0972C487.269 58.4385 493.728 55.1417 500.028 51.6854C507.833 47.396 515.372 42.628 523.848 39.6148C535.334 35.5381 546.978 34.5278 558.942 37.0447C576.816 40.8024 592.23 48.8671 603.998 63.0824C606.865 66.5387 608.989 70.5977 611.395 74.4439C611.979 75.3833 612.51 76.5177 612.617 77.5812C612.723 78.751 612.652 80.4703 611.944 81.0198C611.272 81.5516 609.466 81.2502 608.511 80.7008C606.936 79.7968 605.609 78.4497 604.246 77.2267C599.096 72.5828 594.176 67.6376 588.779 63.3128C583.487 59.0766 577.966 55.0176 572.09 51.6854C557.809 43.6206 542.66 42.2912 526.945 47.0946C519.584 49.3457 512.859 52.9084 506.098 56.5242C499.002 60.3173 491.835 64.0927 484.42 67.1768C476.456 70.4736 467.961 71.6434 459.449 69.4987C454.954 68.3643 450.565 66.645 446.318 64.7662C441.15 62.4797 436.178 59.7324 431.134 57.1623C420.958 52.0044 410.252 50.3383 398.979 52.1639C397.563 52.3943 396.094 52.1994 394.643 52.1994L394.625 52.1817Z" fill="#E5AF24"/>
<path d="M500.365 531.051C501.886 531.494 503.249 531.778 504.523 532.256C509.248 534.029 513.372 532.948 517.159 529.81C520.928 526.691 523.919 522.898 526.114 518.591C529.653 511.66 533.228 504.712 536.077 497.498C541.758 483.123 548.182 469.121 555.42 455.473C558.198 450.226 560.552 444.749 563.012 439.326C566.498 431.615 568.038 423.426 568.675 415.025C569.029 410.275 568.409 405.684 566.321 401.359C564.729 398.045 563.277 394.624 561.348 391.522C555.738 382.482 546.253 379.788 536.679 384.308C534.626 385.265 532.644 386.364 530.556 387.25C528.963 387.924 527.193 388.349 525.848 386.807C524.397 385.141 524.822 383.103 525.99 381.702C527.6 379.806 529.494 377.927 531.653 376.775C544.943 369.738 560.782 373.354 570.551 385.46C576.108 392.355 578.656 400.313 578.691 409.087C578.745 419.421 576.957 429.4 572.374 438.758C570.498 442.569 568.675 446.415 566.534 450.085C556.216 467.721 547.403 486.083 539.227 504.801C536.679 510.632 534.007 516.464 530.786 521.923C528.29 526.141 525.105 530.041 521.76 533.621C519.796 535.713 517.071 537.326 514.398 538.442C509.868 540.321 505.479 539.417 501.745 536.138C500.471 535.022 499.285 533.745 500.347 531.051L500.365 531.051Z" fill="#E5AF24"/>
<path d="M127.011 114.52C125.879 115.707 124.817 116.966 123.631 118.1C119.384 122.07 114.995 125.881 110.854 129.94C90.1484 150.288 78.8755 174.979 77.2473 203.994C76.8049 211.899 76.9819 219.858 76.8757 227.781C76.7518 237.263 76.8049 246.764 76.3802 256.229C76.2032 260.004 75.3007 263.833 74.0973 267.431C73.2301 270.037 71.7082 272.624 69.8323 274.627C66.9123 277.782 63.0898 276.612 62.3465 272.341C61.851 269.487 61.9925 266.385 62.5058 263.514C65.001 249.83 66.6468 236.058 67.3547 222.162C67.7264 214.948 68.275 207.734 68.6643 200.52C70.027 175.227 79.371 153.195 95.6876 134.052C101.687 127.016 108.536 120.865 116.464 116.044C118.251 114.945 120.198 113.988 122.198 113.385C123.525 112.978 125.065 113.314 126.516 113.314C126.675 113.722 126.834 114.13 127.011 114.52Z" fill="white"/>
<path d="M653.443 462.244C655.815 463.715 654.806 465.328 654.541 466.746C653.78 470.929 652.753 475.059 652.081 479.26C649.249 497.215 652.983 514.195 660.009 530.644C664.38 540.871 670.167 550.229 677.016 558.968C680.414 563.31 683.688 567.777 686.731 572.385C689.864 577.136 692.324 582.329 693.12 588.001C693.651 591.741 693.916 595.676 693.386 599.398C692.341 606.683 688.377 612.071 681.051 614.127C673.565 616.219 667.088 613.932 661.708 608.455C659.549 606.24 658.416 603.51 658.664 600.337C659.018 595.498 662.681 593.673 666.681 596.367C667.973 597.235 669.035 598.405 670.291 599.309C671.548 600.213 672.822 601.188 674.255 601.684C677.211 602.695 679.865 601.454 680.52 598.388C681.068 595.817 681.086 593.035 680.715 590.411C679.954 584.899 677.989 579.706 675.158 574.884C672.857 570.985 670.379 567.192 668.008 563.328C655.691 543.299 648.648 521.48 646.471 498.136C645.409 486.81 647.692 475.839 651.585 465.221C651.975 464.158 652.789 463.254 653.426 462.244L653.443 462.244Z" fill="#E52481"/>
<path d="M731.894 396.609C730.655 410.647 735.575 422.877 743.344 434.044C747.202 439.591 752.104 444.413 756.387 449.659C760.404 454.587 764.757 459.337 768.031 464.743C774.473 475.342 775.676 486.846 771.783 498.703C769.199 506.573 764.297 512.635 756.989 516.588C746.848 522.065 735.15 519.743 727.842 510.916C725.718 508.346 724.231 505.474 724.284 502.036C724.355 497.658 727.576 495.832 731.133 498.278C732.974 499.537 734.513 501.274 736.053 502.922C741.344 508.612 746.547 509.232 752.954 504.836C757.36 501.805 760.032 497.551 761.43 492.482C763.572 484.701 763.094 477.062 760.139 469.564C757.767 463.555 754.068 458.397 750.104 453.364C746.512 448.808 742.813 444.306 739.592 439.485C733.646 430.587 728.903 421.105 727.187 410.381C726.107 403.593 726.302 396.822 727.735 390.104C728.443 386.754 729.558 385.283 730.921 385.886C733.133 386.843 732.531 388.934 732.461 390.707C732.372 392.692 732.107 394.659 731.912 396.627L731.894 396.609Z" fill="#E52481"/>
<path d="M136.249 441.506C135.736 442.995 135.435 444.608 134.692 445.972C131.736 451.396 127.56 455.756 122.799 459.674C118.322 463.343 113.915 467.153 109.721 471.142C100.678 479.738 96.5194 490.408 96.9264 502.851C97.1034 508.665 97.5281 514.461 97.7758 520.257C98.1298 529.066 97.9882 537.84 95.9884 546.472C94.6612 552.197 92.626 557.603 89.0158 562.3C83.5652 569.39 76.274 573.059 67.3547 572.864C59.6388 572.687 53.8519 568.876 50.4895 561.892C47.9057 556.557 48.1004 551.098 51.392 546.1C52.4185 544.522 54.082 543.139 55.7632 542.289C58.2939 540.995 60.683 542.43 60.9838 545.266C61.1431 546.773 61.0015 548.421 60.5768 549.875C58.5593 556.805 65.7974 561.609 71.0003 560.9C75.7608 560.244 79.7072 558.046 82.291 554.093C84.3438 550.921 86.025 547.411 87.2992 543.866C89.7768 536.989 90.06 529.775 90.0423 522.49C90.0246 514.425 90.113 506.325 90.8032 498.314C91.7766 487.112 96.7848 477.788 105.439 470.468C110.411 466.267 115.243 461.889 120.198 457.653C124.622 453.86 128.604 449.659 131.896 444.82C132.816 443.455 133.913 442.215 134.94 440.921C135.382 441.116 135.842 441.329 136.284 441.523L136.249 441.506Z" fill="white"/>
<path d="M390.36 335.565C390.236 341.131 386.573 344.037 381.529 342.761C379.636 342.283 377.795 341.467 376.008 340.634C364.239 335.14 352.4 334.129 340.384 339.783C338.455 340.687 336.526 341.556 334.561 342.336C332.208 343.257 329.854 343.258 327.607 341.981C324.846 340.422 323.749 337.745 324.775 334.767C325.235 333.456 325.943 332.162 326.775 331.045C333.641 321.881 342.437 315.607 353.78 313.214C358.293 312.257 362.788 312.328 367.212 313.675C374.114 315.784 380.096 319.506 385.104 324.682C388.13 327.802 390.201 331.471 390.378 335.583L390.36 335.565Z" fill="#E5AF24"/>
<path d="M335.641 33.3225C337.11 32.3122 338.083 31.2665 339.287 30.8765C350.613 27.2784 360.452 20.8089 370.433 14.6406C380.998 8.10021 392.148 3.04865 404.5 1.01031C425.046 -2.39284 442.885 2.71188 457.644 17.7779C462.794 23.0244 468.227 27.9874 473.518 33.1098C474.421 33.9961 475.394 34.8823 476.049 35.9458C477.5 38.3032 476.456 40.2884 473.731 40.2706C472.209 40.2706 470.545 39.987 469.2 39.3312C466.422 37.9664 463.643 36.513 461.183 34.6519C458.033 32.2768 455.078 29.5826 452.246 26.8175C436.16 11.1843 417.047 7.14307 395.758 12.3719C389.351 13.9494 383.122 16.5017 377.017 19.0718C371.69 21.3229 366.735 24.4956 361.426 26.7821C354.948 29.5649 348.277 31.9223 341.64 34.3151C340.012 34.9 338.119 35.4849 335.641 33.3048L335.641 33.3225Z" fill="white"/>
<path d="M648.081 195.858C648.931 193.217 650.718 193.023 652.293 192.65C661.655 190.452 670.84 191.073 679.564 195.185C684.413 197.471 689.014 200.272 693.616 203.037C700.571 207.22 707.738 210.995 715.914 211.793C720.197 212.218 724.709 212.183 728.921 211.35C735.257 210.109 739.699 205.926 742.318 200.006C745.45 192.881 742.194 184.656 735.097 181.484C731.169 179.729 728.62 180.385 725.895 183.894C725.629 184.231 725.435 184.603 725.152 184.922C723.028 187.262 720.904 186.872 719.666 183.894C718.073 180.119 719.117 175.404 722.249 172.621C725.665 169.573 729.771 168.881 734.159 169.519C749.096 171.682 758.493 188.095 752.476 202.009C747.751 212.945 738.991 218.528 727.187 218.936C716.321 219.308 706.216 216.295 696.819 210.925C693.138 208.815 689.581 206.493 686.077 204.118C675.954 197.241 664.964 194.104 652.718 196C651.338 196.213 649.869 195.929 648.134 195.876L648.081 195.858Z" fill="#E5AF24"/>
<path d="M574.674 331.4C572.462 331.4 570.692 331.612 568.976 331.364C562.87 330.478 556.853 330.903 550.854 332.091C536.997 334.856 523.158 337.674 509.284 340.333C499.816 342.159 490.242 342.885 480.597 342.726C470.563 342.566 461.467 339.394 452.919 334.342C450.052 332.64 447.805 330.336 446.353 327.305C445.522 325.568 445.097 323.76 446.336 322.076C447.574 320.41 449.45 320.038 451.309 320.588C453.998 321.385 456.795 322.165 459.219 323.512C467.395 328.085 476.244 330.07 485.393 331.559C500.931 334.094 515.991 331.949 531.122 328.581C537.988 327.057 545.067 326.454 552.093 325.71C558.181 325.054 564.215 325.887 570.108 327.536C571.754 327.996 573.86 328.085 574.674 331.4Z" fill="#E52481"/>
<path d="M159.556 448.383C158.618 449.819 158.052 450.723 157.432 451.609C154.796 455.455 152.035 459.213 149.504 463.13C144.549 470.805 142.266 479.313 141.735 488.405C141.399 494.201 140.797 499.98 140.125 505.74C139.01 515.4 135.966 524.44 131.683 533.196C127.896 540.942 124.64 548.953 121.384 556.929C118.747 563.381 117.402 570.17 116.782 577.153C116.446 580.929 115.597 584.686 114.712 588.391C114.252 590.323 113.243 592.202 110.889 592.45C109.243 592.627 107.881 590.979 107.102 587.948C105.456 581.62 105.828 575.239 107.35 569.018C108.589 563.948 110.164 558.914 112.199 554.111C115.915 545.391 119.826 536.741 124.144 528.304C130.02 516.854 133.948 504.854 135.877 492.145C138.196 476.867 143.947 463.024 153.787 451.006C155.043 449.482 156.034 447.302 159.556 448.383Z" fill="#8D0044"/>
<path d="M539.528 314.543C537.971 315.288 537.404 315.749 536.803 315.82C524.309 317.22 511.814 318.815 499.285 319.861C475.076 321.864 455.467 312.346 439.257 294.904C437.735 293.256 436.408 291.359 435.381 289.357C434.426 287.495 433.788 285.422 433.435 283.348C433.045 281.097 433.098 278.58 435.505 277.357C437.841 276.169 439.54 277.942 441.08 279.377C444.088 282.16 447.026 285.032 449.946 287.921C459.06 296.89 469.82 303.306 481.411 308.428C487.693 311.193 494.401 312.381 501.232 312.452C508.983 312.523 516.752 312.239 524.503 312.221C527.883 312.221 531.281 312.363 534.644 312.7C536.024 312.842 537.316 313.675 539.51 314.543L539.528 314.543Z" fill="#E5AF24"/>
<path d="M614.227 276.648C614.952 276.967 615.767 277.162 616.404 277.605C617.678 278.491 618.917 279.448 620.067 280.494C631.835 291.342 645.975 296.11 661.673 297.368C674.414 298.378 686.82 300.86 698.447 306.62C710.782 312.735 720.179 321.828 726.567 333.97C728.266 337.196 729.275 340.776 730.443 344.25C730.832 345.42 730.85 346.767 730.832 348.025C730.797 350.223 730.408 352.386 728.019 353.254C725.789 354.07 724.072 352.793 722.869 351.216C721.152 348.983 719.666 346.572 718.268 344.126C715.737 339.713 713.489 335.122 710.835 330.779C706.074 322.998 699.403 317.255 691.368 312.93C680.396 307.01 668.769 303.217 656.417 301.852C640.312 300.062 627.27 292.512 616.262 280.973C615.236 279.909 614.386 278.686 613.448 277.534C613.714 277.251 613.979 276.949 614.262 276.666L614.227 276.648Z" fill="#E5AF24"/>
<path d="M252.147 32.7022C250.678 34.2442 249.014 33.2693 247.457 32.9326C242.343 31.8159 237.299 30.4688 232.167 29.494C224.256 27.9874 216.646 29.2635 209.497 32.8971C189.128 43.2838 174.421 58.4562 168.847 81.3389C168.068 84.4939 167.148 87.6311 166.21 90.7507C165.803 92.0978 165.414 93.5689 164.582 94.6501C163.803 95.6605 162.388 96.9012 161.397 96.7948C160.405 96.6708 159.131 95.1287 158.83 93.9766C157.627 89.51 158.105 84.9547 158.937 80.4881C162.051 63.8445 169.856 49.9483 183.394 39.5262C191.641 33.1807 200.613 28.1646 210.541 24.9564C218.133 22.4927 225.796 21.9432 233.476 24.2474C238.75 25.8249 243.935 27.6683 249.103 29.5649C250.448 30.0612 252.164 30.5575 252.129 32.7376L252.147 32.7022Z" fill="#E52481"/>
<path d="M571.807 465.292C571.86 467.171 572.09 469.085 571.931 470.947C571.383 477.363 569.347 483.389 566.852 489.274C564.268 495.407 561.508 501.469 559.313 507.743C557.225 513.734 555.632 519.92 554.075 526.088C551.314 537.078 553.668 547.393 558.534 557.337C559.649 559.606 560.729 561.963 561.242 564.409C561.932 567.671 561.048 570.666 557.915 572.456C554.907 574.176 551.898 573.768 549.084 571.96C546.076 570.01 544.271 567.05 543.598 563.665C542.749 559.375 542.006 554.997 541.97 550.655C541.775 531.707 546.66 514 555.473 497.321C557.119 494.201 558.888 491.135 560.658 488.069C564.127 482.042 567.047 475.768 568.976 469.068C569.347 467.756 569.931 466.515 570.409 465.239C570.869 465.257 571.312 465.292 571.772 465.31L571.807 465.292Z" fill="#976D00"/>
<path d="M699.172 274.822C699.969 274.734 700.783 274.485 701.544 274.574C708.145 275.354 714.87 275.62 721.276 277.162C737.239 281.008 748.777 290.721 755.573 305.699C757.962 310.963 759.378 316.653 761.289 322.13C763.713 329.078 766.262 335.973 768.651 342.921C769.376 345.03 770.12 347.263 770.173 349.461C770.261 352.971 767.324 354.725 764.404 352.793C762.368 351.446 760.475 349.461 759.254 347.352C757.643 344.569 756.581 341.414 755.59 338.33C753.502 331.86 751.856 325.231 749.591 318.833C747.645 313.391 745.539 307.897 742.707 302.881C736.566 292.086 727.47 284.801 715.259 281.664C711.153 280.618 707.065 279.466 703.03 278.172C701.508 277.694 700.164 276.683 698.748 275.921C698.889 275.549 699.031 275.177 699.172 274.804L699.172 274.822Z" fill="white"/>
<path d="M506.682 291.218C506.169 293.54 504.789 293.735 503.32 293.433C484.703 289.764 466.599 285.032 452.565 270.905C445.769 264.063 438.956 257.257 433.364 249.387C428.285 242.262 422.215 236.235 414.782 231.609C412.747 230.351 410.8 228.88 409.084 227.214C406.712 224.892 406.34 222.02 407.756 219.893C409.066 217.908 411.614 217.164 414.605 218.05C418.941 219.326 422.586 221.808 425.347 225.317C429.541 230.652 434.107 235.828 437.434 241.695C450.848 265.339 471.111 279.75 496.79 287.247C498.825 287.832 500.878 288.417 502.842 289.179C504.223 289.711 505.479 290.58 506.7 291.235L506.682 291.218Z" fill="white"/>
<path d="M614.811 346.093C616.545 346.643 617.926 346.785 618.987 347.441C628.792 353.556 639.711 355.452 650.948 356.108C657.708 356.498 664.504 356.462 671.264 356.906C676.75 357.278 682.272 357.721 687.652 358.784C695.704 360.38 702.234 364.829 707.242 371.316C708.676 373.177 709.72 375.428 710.516 377.661C711.242 379.7 711.189 381.951 709.224 383.493C707.295 384.999 705.172 384.574 703.261 383.457C701.809 382.624 700.252 381.702 699.208 380.426C690.607 369.951 678.821 366.831 666.115 365.573C658.381 364.811 650.647 364.031 642.949 362.95C633.658 361.638 625.252 358.111 618.12 351.889C616.687 350.631 614.917 349.497 614.811 346.076L614.811 346.093Z" fill="#E52481"/>
<path d="M199.374 323.104C213.833 322.892 225.389 328.493 233.565 340.634C234.273 341.68 235.016 342.761 235.388 343.949C236.255 346.643 234.733 348.61 231.972 348.132C230.238 347.83 228.574 346.856 226.946 346.058C223.407 344.321 220.027 342.229 216.381 340.794C210.47 338.472 204.489 338.826 198.631 341.308C196.932 342.017 195.269 342.85 193.534 343.364C191.375 344.002 189.181 344.64 186.951 344.817C182.297 345.172 178.934 343.116 177.377 339.34C175.802 335.476 176.846 331.187 180.173 328.156C182.651 325.905 185.659 324.717 188.88 324.044C190.809 323.636 192.773 323.335 194.72 323.158C196.26 323.016 197.817 323.122 199.374 323.122L199.374 323.104Z" fill="#976D00"/>
<path d="M117.455 429.595C118.464 433.104 117.03 435.018 115.898 436.88C109.969 446.593 101.74 453.736 91.3341 458.291C88.4849 459.532 85.4941 460.436 82.6095 461.588C79.7249 462.74 76.8226 463.892 74.0442 465.275C69.089 467.756 65.3904 471.585 62.9128 476.583C61.7802 478.87 60.6122 481.138 59.4088 483.389C54.1528 493.227 46.2422 499.909 35.6771 503.418C32.3147 504.535 28.8815 505.403 25.5191 506.467C19.9976 508.204 14.4938 510.047 8.95467 511.784C7.34425 512.281 5.68073 512.812 4.01721 512.866C1.18569 512.936 -0.424731 510.898 0.0884818 508.098C0.583997 505.297 2.3183 503.241 4.53042 501.575C7.78667 499.129 11.5207 497.835 15.4849 497.268C18.9712 496.771 22.5106 496.488 26.05 496.328C38.2609 495.797 47.7819 490.763 54.082 480.039C55.3031 477.966 56.6657 475.98 57.8868 473.907C61.6563 467.561 67.0362 463.165 73.9203 460.648C77.1058 459.479 80.3443 458.451 83.5652 457.423C97.0503 453.115 107.35 444.696 115.048 432.909C115.632 432.023 116.305 431.19 117.473 429.595L117.455 429.595Z" fill="#976D00"/>
<path d="M159.025 521.303C158.6 522.721 158.335 523.873 157.91 524.954C156.548 528.375 155.149 531.778 153.734 535.181C148.301 548.209 148.814 561.29 154.176 574.069C157.733 582.542 162.016 590.73 166.228 598.902C169.714 605.672 172.333 612.674 172.687 620.295C172.864 624.354 172.51 628.502 171.979 632.543C171.608 635.397 170.103 637.914 167.484 639.438C165.679 640.502 163.75 640.891 161.874 639.615C160.14 638.428 159.892 636.62 160.193 634.688C160.299 633.997 160.405 633.27 160.636 632.614C163.078 625.613 162.688 618.541 160.388 611.717C157.786 603.935 154.725 596.296 151.539 588.745C148.991 582.719 146.407 576.746 145.717 570.17C143.965 553.508 147.964 538.123 156.176 523.713C156.583 522.986 157.185 522.348 157.733 521.71C157.893 521.533 158.229 521.533 159.043 521.285L159.025 521.303Z" fill="white"/>
<path d="M587.257 417.063C589.911 415.716 591.062 416.992 592.23 417.932C603.75 427.131 611.466 438.617 612.988 453.612C613.944 463.041 614.634 472.506 615.36 481.954C616.227 493.563 617.837 505.031 621.713 516.092C622.58 518.591 623.111 521.32 623.182 523.961C623.288 527.435 620.633 528.747 617.749 526.797C614.829 524.812 613.165 521.834 611.891 518.644C609.219 511.873 607.891 504.783 607.042 497.587C605.98 488.689 606.423 479.791 606.794 470.858C607.06 464.229 607.007 457.547 606.546 450.935C605.768 439.716 601.007 430.268 592.778 422.593C590.973 420.91 589.274 419.102 587.239 417.063L587.257 417.063Z" fill="white"/>
<path d="M748.671 395.156C749.892 392.905 751.679 393.188 753.184 393.826C754.971 394.588 756.705 395.652 758.227 396.875C762.492 400.296 765.501 404.762 768.085 409.53C770.367 413.767 772.509 418.091 774.845 422.292C776.862 425.926 779.428 429.222 783.092 431.261C785.392 432.537 787.994 433.547 790.577 433.955C794.135 434.54 796.24 432.608 796.506 428.974C796.612 427.468 796.276 425.89 795.975 424.384C795.745 423.285 795.196 422.257 794.878 421.175C794.311 419.19 794.081 417.152 795.94 415.716C797.727 414.334 799.851 414.582 801.532 415.716C803.355 416.939 805.231 418.428 806.416 420.254C810.681 426.865 809.513 436.419 804.063 441.878C798.506 447.444 790.046 448.383 782.968 444.094C777.198 440.602 773.234 435.462 770.474 429.417C768.474 425.039 766.863 420.484 765.076 416.018C763.023 410.86 760.634 405.826 756.67 401.855C754.299 399.48 751.52 397.531 748.636 395.156L748.671 395.156Z" fill="white"/>
<path d="M138.585 355.683C137.063 355.807 136.108 356.019 135.205 355.913C125.702 354.903 117.243 357.827 109.615 363.109C104.872 366.406 100.537 370.305 96.1654 374.116C92.5375 377.271 89.1751 380.745 85.5649 383.918C81.2646 387.711 76.2917 390.352 70.841 392.142C63.7091 394.482 56.6304 394.659 49.6754 391.77C43.6408 389.271 37.5707 387.977 31.0582 389.289C29.7132 389.555 28.2267 389.36 26.864 389.094C24.9704 388.721 23.3777 387.729 23.0592 385.602C22.7583 383.475 23.9794 381.986 25.6783 381.153C27.2888 380.355 29.1115 379.77 30.8812 379.54C37.0221 378.742 43.2337 379.061 48.7198 381.968C59.8866 387.853 69.85 384.521 79.548 378.689C83.1581 376.509 86.4144 373.691 89.706 371.014C100.413 362.294 112.376 356.108 125.914 353.272C128.374 352.758 130.958 352.723 133.488 352.776C135.276 352.811 137.169 353.13 138.585 355.7L138.585 355.683Z" fill="#976D00"/>
<path d="M698.235 524.05C700.376 524.653 700.34 526.443 700.447 528.127C700.712 532.079 700.818 536.05 701.278 539.984C702.376 549.449 706.11 557.727 713.1 564.285C715.117 566.182 717.577 567.777 720.108 568.876C723.453 570.329 726.585 569.159 728.797 566.377C730.956 563.665 730.939 561.307 728.726 557.816C728.196 556.982 727.541 556.203 727.081 555.334C725.382 552.144 726.851 549.325 730.443 548.9C733.168 548.563 735.416 549.662 737.398 551.417C742.459 555.884 743.964 563.594 740.99 569.691C735.841 580.237 722.975 583.782 713.171 577.33C709.667 575.026 706.977 571.942 704.924 568.344C697.81 555.919 695.385 542.413 696.058 528.251C696.129 526.585 696.146 524.759 698.235 524.032L698.235 524.05Z" fill="white"/>
<path d="M694.412 244.602C695.049 244.513 695.722 244.229 696.288 244.389C697.226 244.655 698.146 245.098 698.942 245.665C710.552 253.73 723.559 257.257 737.522 258.196C751.98 259.171 763.784 265.393 772.562 277.073C775.411 280.849 777.499 284.996 778.136 289.746C778.278 290.863 778.561 292.086 778.278 293.114C777.924 294.373 777.269 296.074 776.296 296.464C775.358 296.836 773.659 296.021 772.65 295.277C771.553 294.461 770.845 293.132 770.013 291.998C768.35 289.711 766.793 287.336 765.076 285.103C758.776 276.896 750.759 271.135 740.743 268.3C735.168 266.722 729.558 265.251 724.037 263.514C714.392 260.465 705.49 255.892 697.633 249.458C696.27 248.341 695.155 246.941 693.916 245.683C694.076 245.346 694.253 245.009 694.412 244.672L694.412 244.602Z" fill="#E52481"/>
<path d="M210.293 174.323C212.169 177.088 211.497 178.931 210.523 180.668C208.878 183.628 207.072 186.518 205.427 189.495C200.188 199.031 194.543 208.39 189.924 218.227C186.031 226.505 183.27 235.331 180.085 243.946C177.111 252.046 174.28 260.199 171.289 268.282C170.758 269.717 169.997 271.153 169.006 272.305C166.847 274.769 163.52 274.22 162.051 271.26C160.901 268.938 161.237 266.527 162.051 264.223C164.44 257.417 166.918 250.646 169.378 243.875C169.82 242.687 170.245 241.464 170.829 240.348C181.748 219.255 192.402 198.003 206.453 178.719C207.479 177.301 208.754 176.06 210.293 174.305L210.293 174.323Z" fill="#976D00"/>
<path d="M97.4927 400.03C96.9441 401.093 96.484 402.228 95.8115 403.203C88.6442 413.554 79.1763 420.378 66.5938 422.558C58.7894 423.905 51.0381 425.465 43.2514 426.901C34.3675 428.549 26.5986 432.218 20.6878 439.308C18.4757 441.967 16.7237 444.838 16.6706 448.454C16.6175 451.183 17.1661 453.505 20.2453 454.427C22.2451 455.03 23.8909 456.164 23.6432 458.628C23.4662 460.471 21.608 462.226 19.2543 462.722C15.3433 463.555 12.3348 461.907 9.9811 458.947C7.57431 455.916 6.93722 452.3 7.11419 448.525C7.34425 444.023 8.88389 439.946 11.6623 436.383C18.4933 427.627 27.3772 422.204 38.3848 420.715C44.6672 419.864 51.0381 419.633 57.3559 418.924C61.9748 418.41 66.5938 417.772 71.1242 416.797C78.5392 415.202 84.6801 411.285 89.7414 405.666C91.1572 404.089 92.5021 402.423 93.971 400.916C94.6789 400.189 95.6522 399.711 96.5017 399.108C96.8202 399.409 97.1388 399.711 97.475 400.012L97.4927 400.03Z" fill="#8D0044"/>
<path d="M123.985 244.513C122.622 245.435 121.331 246.463 119.915 247.278C107.775 254.173 99.2624 264.311 93.3339 276.79C91.9358 279.732 90.5732 282.692 89.1397 285.617C83.3528 297.457 74.5397 306.461 62.9659 312.611C59.5327 314.437 55.6393 315.749 51.7991 316.351C48.8791 316.812 45.6405 316.05 42.6851 315.288C41.0393 314.862 39.4643 313.515 38.2078 312.239C36.2611 310.236 35.9603 307.666 37.1637 306.053C38.7033 303.997 40.7915 304.174 42.9329 304.795C43.4815 304.954 44.0478 305.061 44.5433 305.309C50.5072 308.34 56.064 306.939 61.4616 303.767C71.3188 297.971 78.8755 289.906 84.7509 280.122C88.3787 274.06 92.0774 267.998 96.2362 262.291C101.935 254.456 109.633 248.944 118.411 244.956C120.003 244.229 121.755 243.822 123.436 243.272C123.613 243.698 123.79 244.123 123.967 244.548L123.985 244.513Z" fill="#976D00"/>
<path d="M588.319 564.551C588.637 566.412 589.009 568.273 589.239 570.152C590.371 579.263 591.203 588.444 592.672 597.501C593.84 604.662 596.689 611.327 600.76 617.406C603.609 621.678 607.449 624.602 612.192 626.481C614.085 627.226 615.731 627.332 617.271 625.843C617.572 625.542 617.943 625.311 618.297 625.099C620.952 623.521 623.482 623.521 625.394 625.17C627.588 627.066 627.871 629.53 627.093 632.153C625.659 637.063 620.421 640.59 614.935 640.182C609.537 639.775 604.6 637.772 600.99 633.784C597.999 630.469 595.344 626.676 593.327 622.706C589.133 614.428 586.885 605.424 586.266 596.19C585.646 587.044 585.806 577.827 585.735 568.645C585.735 567.263 586.336 565.88 586.655 564.48C587.204 564.498 587.752 564.533 588.319 564.551Z" fill="white"/>
<path d="M418.622 175.599C417.065 172.657 417.631 170.743 418.25 168.917C427.258 142.826 448.176 128.008 472.899 127.264C482.296 126.98 491.516 127.973 500.347 131.464C507.461 134.283 513.018 138.82 516.38 145.804C516.77 146.637 517 147.541 516.681 148.87C515.832 148.055 514.911 147.31 514.15 146.424C511.708 143.553 508.7 141.55 505.249 140.096C492.277 134.637 478.827 132.758 464.971 135.222C451.645 137.597 440.637 144.209 432.514 155.145C428.55 160.48 425.082 166.17 421.383 171.7C420.64 172.816 419.826 173.898 418.604 175.599L418.622 175.599Z" fill="white"/>
<path d="M349.622 348.309C358.895 348.628 366.363 351.907 371.92 359.157C374.15 362.063 375.318 365.325 375.459 368.958C375.618 373.39 373.566 375.038 369.425 373.709C367.69 373.159 366.009 372.362 364.328 371.653C356.063 368.143 347.586 365.75 338.49 366.069C335.836 366.158 333.128 365.786 330.527 365.218C327.447 364.563 326.739 362.613 328.261 359.83C328.527 359.334 328.845 358.855 329.235 358.448C334.915 352.563 341.516 348.557 349.639 348.309L349.622 348.309Z" fill="#E5AF24"/>
<path d="M579.169 447.834C582.249 448.365 582.496 450.226 583.009 451.751C585.806 459.922 586.637 468.359 585.77 476.902C585.062 483.797 583.965 490.674 583.08 497.551C581.488 509.764 581.311 521.852 585.735 533.639C586.266 535.075 586.567 536.67 586.584 538.212C586.602 541.243 584.425 542.59 581.7 541.261C578.691 539.772 576.285 537.397 575.117 534.295C573.772 530.768 572.657 527.028 572.197 523.288C571.082 514.177 572.462 505.191 574.409 496.293C575.718 490.337 577.152 484.417 578.55 478.497C580.532 470.113 580.691 461.677 579.541 453.151C579.329 451.556 579.329 449.907 579.205 447.816L579.169 447.834Z" fill="#E5AF24"/>
<path d="M580.178 373.23C580.921 373.585 581.718 373.85 582.372 374.329C589.628 379.54 598.052 381.313 606.67 382.358C612.97 383.12 619.2 383.581 625.641 382.784C635.817 381.507 645.958 382.394 655.762 385.956C661 387.853 666.026 390.139 669.99 394.128C671.53 395.67 672.733 397.708 673.636 399.711C674.432 401.501 673.813 403.362 672.167 404.638C670.645 405.808 668.964 405.719 667.371 404.816C666.274 404.195 665.141 403.486 664.345 402.529C658.416 395.457 650.276 392.71 641.675 391.167C637.251 390.37 632.667 390.193 628.172 390.193C617.642 390.193 607.272 389.253 597.167 386.098C591.716 384.397 586.496 382.27 582.355 378.175C581.151 376.988 580.266 375.446 579.24 374.081C579.559 373.797 579.877 373.531 580.178 373.248L580.178 373.23Z" fill="white"/>
<path d="M516.345 579.652C516.416 568.734 517.389 560.191 520.698 552.073C521.477 550.141 522.663 548.333 523.937 546.667C524.379 546.1 525.866 545.745 526.521 546.064C527.175 546.383 527.742 547.624 527.742 548.457C527.742 549.68 527.264 550.956 526.839 552.144C522.238 564.728 522.981 577.437 525.813 590.199C527.105 596.03 530.679 600.302 535.369 603.758C537.068 605.017 538.909 606.133 540.431 607.587C542.802 609.838 543.244 612.762 541.935 615.315C540.572 617.973 537.634 619.356 534.396 618.771C531.317 618.222 529.016 616.378 526.963 614.18C523.406 610.369 521.176 605.814 519.743 600.869C518.787 597.625 517.973 594.293 517.495 590.961C516.858 586.494 516.61 581.957 516.398 579.67L516.345 579.652Z" fill="white"/>
<path d="M89.0512 320.056C87.1754 321.013 86.1312 321.651 85.0163 322.094C80.5036 323.937 76.5572 326.614 73.0532 329.964C69.7969 333.101 66.6292 336.345 63.2844 339.376C57.2851 344.817 50.4541 348.575 42.2958 349.621C37.2875 350.259 32.3501 349.851 27.7489 347.813C21.608 345.101 15.5557 344.605 9.25552 347.121C7.85746 347.671 6.21164 347.866 4.6897 347.795C1.66352 347.689 -0.123878 345.278 1.168 342.548C2.14134 340.492 3.80485 338.419 5.69843 337.196C11.6977 333.314 18.1394 332.818 24.5988 336.221C26.5986 337.267 28.4391 338.578 30.3326 339.837C36.0488 343.63 42.1011 344.215 48.5251 341.928C54.3651 339.854 59.1787 336.185 63.8507 332.25C66.9831 329.609 70.0447 326.862 73.2655 324.363C76.9996 321.456 81.1407 319.347 86.0073 319.223C86.7329 319.205 87.4585 319.595 89.0866 320.056L89.0512 320.056Z" fill="white"/>
<path d="M614.669 326.561C613.165 325.692 611.59 324.93 610.174 323.92C604.848 320.18 599.715 316.156 594.247 312.629C575.63 300.576 555.243 295.72 533.175 298.042C529.511 298.432 525.866 298.875 522.203 299.141C520.592 299.265 518.964 299.052 517.141 298.981C517.212 295.879 519.212 295.241 521.052 294.798C526.273 293.575 531.494 292.299 536.803 291.519C562.18 287.761 583.912 295.773 602.812 312.505C606.299 315.607 609.573 318.957 612.882 322.254C613.855 323.228 614.599 324.416 615.448 325.497C615.2 325.852 614.935 326.206 614.687 326.561L614.669 326.561Z" fill="white"/>
<path d="M603.856 541.934C605.821 540.8 606.883 542.076 607.874 542.909C616.651 550.265 625.588 557.461 633.127 566.182C638.985 572.952 643.25 580.521 643.869 589.702C644.152 593.726 643.657 597.643 641.516 601.17C639.888 603.864 637.605 605.655 634.313 605.708C630.579 605.779 628.508 603.35 629.181 599.681C629.411 598.441 629.871 597.235 630.313 596.03C632.579 590.057 632.313 584.101 630.278 578.146C627.995 571.464 624.261 565.668 619.483 560.527C615.253 555.972 610.811 551.612 606.529 547.074C605.219 545.692 603.52 544.398 603.821 541.916L603.856 541.934Z" fill="white"/>
<path d="M641.091 156.279C641.339 152.965 643.462 152.273 645.374 151.618C651.762 149.437 658.328 148.587 664.982 149.916C669.247 150.767 673.441 152.078 677.618 153.355C682.944 154.985 688.342 156.137 693.881 155.269C696.748 154.826 699.668 153.904 702.199 152.504C706.446 150.164 708.304 142.578 701.845 139.441C700.588 138.838 699.279 138.058 698.429 137.012C697.721 136.144 697.102 134.495 697.474 133.627C697.934 132.546 699.332 131.553 700.517 131.181C701.615 130.844 703.048 131.181 704.216 131.571C714.746 135.08 717.56 148.48 709.366 155.978C706.694 158.442 703.455 159.806 699.951 160.568C691.899 162.306 683.953 161.809 676.131 159.221C673.583 158.388 671.07 157.467 668.557 156.527C661.177 153.762 653.691 153.461 646.082 155.446C644.56 155.836 642.967 155.96 641.073 156.261L641.091 156.279Z" fill="#E52481"/>
<path d="M436.655 104.541C435.647 105.781 434.797 107.199 433.612 108.245C430.638 110.868 427.63 113.438 424.462 115.796C411.119 125.739 400.412 137.987 392.13 152.415C390.449 155.357 388.59 158.193 386.785 161.083C386.254 161.916 385.83 162.926 385.069 163.475C384.025 164.238 382.733 164.645 381.547 165.212C381.069 163.954 380.007 162.571 380.237 161.472C380.963 158.052 381.706 154.489 383.317 151.44C387.617 143.287 392.891 135.736 399.244 129.018C407.455 120.333 416.906 113.173 427.046 106.933C428.957 105.764 431.045 104.86 433.134 104.027C434.036 103.672 435.151 103.778 436.16 103.69C436.319 103.973 436.496 104.257 436.655 104.541Z" fill="#E52481"/>
<path d="M689.74 502.461C688.855 500.582 688.041 499.324 687.634 497.941C685.971 492.163 686.59 486.403 688.165 480.748C689.421 476.246 690.997 471.851 692.412 467.384C695.633 457.263 697.35 446.983 695.315 436.401C694.589 432.661 693.456 428.992 692.518 425.288C692.147 423.834 691.757 422.381 691.156 420.041C692.819 420.803 693.916 420.963 694.359 421.583C696.412 424.437 698.712 427.22 700.11 430.392C704.021 439.219 704.588 448.525 702.57 457.883C701.42 463.272 699.88 468.607 698.022 473.8C695.438 481.032 693.209 488.299 692.607 496.027C692.448 498.048 692.412 500.281 689.74 502.479L689.74 502.461Z" fill="#976D00"/>
<path d="M349.215 631.019C352.046 631.71 354.966 632.206 357.709 633.146C360.045 633.943 361.744 635.716 362.558 638.162C363.443 640.821 362.753 643.302 360.541 644.968C359.762 645.553 358.859 646.12 357.939 646.333C351.144 647.857 344.737 650.268 338.561 653.512C335.34 655.195 332.031 654.079 330.12 651.668C327.377 648.23 327.111 645.5 329.536 641.973C334.225 635.131 340.455 631.054 349.25 631.019L349.215 631.019Z" fill="#E52481"/>
<path d="M162.37 171.239C168.033 170.955 173.678 171.026 178.97 173.383C180.722 174.163 182.421 175.369 183.73 176.751C184.403 177.46 184.615 179.179 184.261 180.137C184.013 180.792 182.421 181.147 181.412 181.253C180.474 181.342 179.465 180.987 178.527 180.686C168.351 177.354 158.158 178.081 148.018 180.686C135.4 183.93 124.162 190.098 113.739 197.808C112.27 198.907 110.783 200.024 109.19 200.892C108.624 201.194 107.332 201.052 107.014 200.626C106.66 200.148 106.854 199.067 107.12 198.358C107.35 197.737 107.952 197.223 108.465 196.745C118.57 187.528 129.613 179.764 142.496 174.943C148.885 172.55 155.521 171.221 162.388 171.221L162.37 171.239Z" fill="#976D00"/>
<path d="M320.988 287.123C321.749 283.454 324.032 282.621 326.155 282.178C330.845 281.203 335.588 280.281 340.348 279.927C349.392 279.253 358.417 280.033 367.336 281.611C376.733 283.277 384.732 287.814 390.696 295.206C396.466 302.331 401.845 309.829 406.924 317.486C410.605 323.016 413.525 329.024 416.746 334.856C417.401 336.043 417.826 337.337 418.374 338.596C418.109 338.755 417.844 338.933 417.578 339.092C416.569 337.692 415.507 336.309 414.57 334.874C406.394 322.254 397.191 310.413 387.44 298.981C379.706 289.941 369.973 285.439 358.222 284.606C349.834 284.021 341.552 284.464 333.305 286.007C330.81 286.485 328.314 287.017 325.784 287.318C324.35 287.495 322.881 287.23 321.006 287.159L320.988 287.123Z" fill="#E5AF24"/>
<path d="M610.776 119.305C611.572 118.898 612.333 118.295 613.183 118.135C614.28 117.923 615.43 117.994 616.563 118.082C624.491 118.685 631.588 116.328 638.206 112.091C641.179 110.195 644.17 108.28 647.303 106.685C653.231 103.654 659.513 102.254 666.168 103.424C671.424 104.346 675.883 106.756 678.485 111.524C679.653 113.651 680.13 116.292 680.378 118.756C680.484 119.872 679.493 121.734 678.538 122.124C677.635 122.496 676.007 121.556 674.945 120.83C673.937 120.138 673.229 118.986 672.397 118.011C669.689 114.821 666.185 113.226 662.062 112.836C656.753 112.322 651.656 113.119 646.701 115.069C643.02 116.522 639.357 118.047 635.623 119.288C628.845 121.539 621.89 122.584 614.758 121.556C613.377 121.361 612.068 120.706 610.723 120.245C610.723 119.943 610.758 119.624 610.776 119.323L610.776 119.305Z" fill="white"/>
<path d="M546.943 141.16C545.226 142.844 543.474 142.542 541.935 141.922C538.802 140.664 535.617 139.441 532.732 137.704C529.122 135.523 525.777 132.865 522.344 130.383C519.123 128.079 515.938 125.739 512.735 123.417C499.197 113.616 484.083 109.769 467.519 111.294C466.227 111.418 464.9 111.258 463.466 111.241C463.59 108.458 465.254 107.979 466.9 107.589C472.863 106.154 478.898 105.959 484.968 106.437C495.816 107.288 505.497 111.471 514.487 117.285C524.45 123.736 534.201 130.49 544.041 137.101C545.457 138.058 546.801 139.051 546.943 141.16Z" fill="#E52481"/>
<path d="M311.449 389.82C320.103 396.325 328.881 401.731 339.888 402.228C348.808 402.635 357.302 400.686 365.496 397.371C370.345 395.404 375.035 393.099 379.813 390.973C382.627 389.714 384.184 389.785 384.644 391.274C385.352 393.614 383.564 394.606 381.972 395.492C370.345 401.926 358.028 406.482 344.79 407.917C334.119 409.087 324.315 406.003 315.555 399.888C312.334 397.637 309.202 395.138 306.441 392.355C304.017 389.909 304.778 386.098 307.768 384.432C308.848 383.829 310.547 383.546 311.679 383.954C313.431 384.592 312.723 386.275 312.281 387.64C312.104 388.172 311.892 388.686 311.467 389.838L311.449 389.82Z" fill="#E52481"/>
<path d="M323.554 498.296C325.288 499.678 326.899 501.309 328.792 502.39C333.553 505.102 338.331 507.92 343.357 510.083C351.321 513.504 358.859 517.598 365.974 522.49C372.291 526.833 376.026 532.895 376.397 540.552C376.556 543.831 375.707 547.252 374.804 550.46C374.397 551.913 372.946 553.313 371.601 554.217C369.336 555.724 367.124 554.643 366.487 551.966C366.221 550.885 366.257 549.715 366.204 548.599C366.098 546.472 366.186 544.345 365.938 542.236C364.629 531.087 359.656 522.437 349.197 517.439C343.729 514.815 338.278 512.103 333.004 509.09C330.102 507.442 327.43 505.244 324.917 503.028C323.802 502.036 323.289 500.352 322.51 498.987C322.864 498.757 323.218 498.526 323.554 498.296Z" fill="white"/>
<path d="M531.688 221.843C529.334 221.843 527.866 221.949 526.397 221.843C515.495 220.921 505.337 223.403 495.728 228.419C489.835 231.503 484.03 234.729 478.119 237.76C471.43 241.163 464.298 242.723 456.795 242.191C454.282 242.014 451.769 241.5 449.309 240.879C447.663 240.472 445.805 239.603 446.088 237.529C446.371 235.42 448.353 235.367 450.105 235.278C454.759 235.083 459.484 235.314 464.033 234.516C468.988 233.648 473.908 232.141 478.615 230.315C483.995 228.206 489.109 225.406 494.348 222.942C499.745 220.39 505.373 218.617 511.301 217.766C517.46 216.88 523.406 217.837 529.281 219.574C529.671 219.698 530.06 219.929 530.396 220.177C530.609 220.336 530.75 220.602 531.706 221.861L531.688 221.843Z" fill="#E52481"/>
<path d="M557.756 616.768C558.251 612.833 558.712 608.615 559.402 604.432C559.561 603.51 560.464 602.216 561.242 602.021C562.782 601.649 563.384 603.12 563.596 604.396C563.932 606.346 564.056 608.331 564.268 610.299C564.64 613.808 564.835 617.353 565.454 620.827C566.392 626.091 568.87 630.664 572.444 634.652C573.701 636.035 575.046 636.726 576.922 635.875C578.992 634.936 581.116 634.776 582.762 636.638C584.531 638.658 584.408 641.069 583.505 643.444C581.965 647.503 577.594 649.523 573.011 648.354C569.701 647.503 567.277 645.376 565.277 642.735C561.773 638.126 559.791 632.862 558.871 627.208C558.322 623.876 558.128 620.473 557.756 616.786L557.756 616.768Z" fill="#E5AF24"/>
<path d="M396.306 103.353C395.528 104.984 394.855 106.668 393.935 108.21C390.926 113.173 387.918 118.135 384.768 122.992C380.361 129.781 376.574 136.87 373.76 144.474C372.84 146.974 371.601 149.402 370.256 151.706C369.495 153 368.327 154.188 367.071 155.021C365.124 156.315 363.018 155.517 362.381 153.266C361.974 151.83 361.85 150.129 362.186 148.693C362.788 146.105 363.655 143.517 364.753 141.089C370.115 129.072 377.654 118.525 386.608 108.972C388.343 107.128 390.325 105.498 392.307 103.92C393.209 103.211 394.413 102.892 395.474 102.396C395.758 102.715 396.041 103.034 396.324 103.353L396.306 103.353Z" fill="white"/>
<path d="M576.78 219.096C584.956 219.113 592.743 220.886 599.963 224.803C603.556 226.753 607.024 229.004 610.758 230.67C616.156 233.063 621.73 235.048 627.234 237.21C629.464 238.079 631.747 238.806 633.871 239.887C634.543 240.224 635.216 241.553 635.074 242.28C634.95 243.006 633.888 243.963 633.11 244.088C631.322 244.371 629.358 244.637 627.677 244.158C622.668 242.758 617.66 241.198 612.829 239.302C609.431 237.972 606.175 236.147 603.06 234.215C593.858 228.507 583.824 225.459 573.117 224.484C571.984 224.378 570.799 224.395 569.772 224.023C568.816 223.669 568.038 222.836 567.188 222.233C568.002 221.382 568.675 220.336 569.648 219.734C570.427 219.255 571.542 219.202 572.515 219.149C573.913 219.06 575.329 219.131 576.745 219.131L576.78 219.096Z" fill="white"/>
<path d="M435.257 208.39C433.771 206.352 434.603 204.402 435.682 202.86C439.062 198.021 442.195 192.845 446.3 188.68C456.299 178.506 468.315 171.469 482.402 168.633C487.056 167.694 491.923 167.818 496.701 167.587C497.922 167.534 499.161 168.013 501.143 168.385C499.904 169.342 499.285 170.069 498.506 170.37C497.338 170.831 496.064 171.026 494.808 171.257C471.996 175.51 453.768 187.209 439.522 205.394C438.461 206.759 437.629 208.638 435.257 208.372L435.257 208.39Z" fill="#E52481"/>
<path d="M514.009 444.608C513.92 443.243 513.513 441.984 513.832 440.956C517.743 428.389 521.194 415.557 530.556 405.613C533.246 402.759 536.254 400.03 539.581 397.991C546.359 393.862 553.155 396.361 555.278 404.018C557.809 413.128 558.021 422.469 555.331 431.668C554.942 432.998 554.393 434.434 553.473 435.426C552.765 436.206 551.12 436.986 550.359 436.667C549.562 436.33 549.031 434.699 548.943 433.583C548.837 432.36 549.438 431.101 549.633 429.843C550.518 424.118 551.509 418.41 552.164 412.668C552.394 410.612 552.057 408.396 551.544 406.358C550.252 401.271 546.518 399.463 541.864 401.785C539.493 402.972 537.263 404.585 535.298 406.375C529.795 411.409 525.512 417.347 522.928 424.401C520.928 429.843 519.088 435.355 517.106 440.797C516.61 442.144 516.522 443.899 514.027 444.554L514.009 444.608Z" fill="#E52481"/>
<path d="M211.355 598.051C211.231 602.145 207.94 604.308 204.736 602.624C202.967 601.684 201.374 600.036 200.188 598.37C195.853 592.237 192.225 585.679 189.694 578.589C188.084 574.069 186.739 569.461 185.341 564.87C185.022 563.806 184.703 562.619 184.827 561.555C184.951 560.545 185.517 558.968 186.19 558.79C187.199 558.542 188.544 559.127 189.552 559.694C190.207 560.067 190.561 561.006 190.986 561.733C196.737 571.605 202.471 581.478 208.205 591.368C208.984 592.716 209.815 594.027 210.47 595.427C210.948 596.42 211.178 597.537 211.337 598.051L211.355 598.051Z" fill="#8D0044"/>
<path d="M177.802 374.79C179.43 367.984 182.668 361.762 188.685 357.49C194.207 353.573 200.383 353.928 206.524 356.002C207.833 356.445 209.178 357.083 210.222 357.969C212.771 360.131 212.169 363.765 208.966 364.545C199.958 366.725 192.349 371.404 185.217 377.094C184.456 377.697 183.589 378.246 182.704 378.636C179.819 379.859 177.572 378.228 177.819 374.825L177.802 374.79Z" fill="#976D00"/>
<path d="M609.679 170.955C608.422 170.548 607.095 170.282 605.945 169.661C604.706 169.005 603.609 168.084 602.494 167.198C592.46 159.239 581.151 157.449 568.887 160.125C563.507 161.295 558.163 162.695 552.748 163.564C549.58 164.078 546.271 163.865 543.05 163.724C541.829 163.67 540.625 162.855 539.422 162.394C539.422 162.04 539.422 161.667 539.44 161.313C540.944 160.746 542.413 160.037 543.97 159.647C550.536 157.998 557.172 156.598 563.702 154.843C574.674 151.883 585.469 152.273 596.176 156.013C601.414 157.839 605.732 160.888 608.812 165.514C609.679 166.825 610.068 168.438 610.688 169.909C610.351 170.246 610.015 170.601 609.679 170.937L609.679 170.955Z" fill="white"/>
<path d="M594.566 402.653C597.185 401.253 598.654 402.724 600.176 403.539C606.847 407.084 613.802 409.832 621.447 410.097C625.535 410.239 629.623 409.814 633.729 409.814C636.826 409.814 639.941 409.938 643.02 410.222C644.754 410.381 646.365 411.214 646.754 413.164C647.196 415.309 645.958 416.904 644.241 417.631C641.675 418.694 638.95 419.687 636.207 419.935C629.942 420.52 623.801 419.527 617.89 417.329C610.422 414.546 603.609 410.523 597.273 405.719C596.265 404.957 595.557 403.805 594.566 402.671L594.566 402.653Z" fill="#E5AF24"/>
<path d="M341.375 521.923C342.72 521.923 343.286 521.763 343.711 521.941C353.834 526.283 364.239 535.376 362.505 551.417C361.974 556.22 360.169 560.439 356.488 563.682C355.444 564.604 354.276 565.473 353.019 566.093C349.091 568.025 346.242 566.199 346.383 561.804C346.454 559.553 346.932 557.319 347.003 555.05C347.073 553.083 346.772 551.098 346.755 549.13C346.755 548.085 346.967 547.039 347.162 545.231C351.356 548.811 351.551 553.349 352.931 557.904C353.816 557.036 354.63 556.522 355.019 555.795C357.019 551.966 356.931 547.907 356.134 543.795C354.648 536.191 349.816 530.679 344.684 525.344C343.746 524.369 342.826 523.412 341.375 521.887L341.375 521.923Z" fill="white"/>
<path d="M137.753 224.254C143.576 224.005 149.787 225.069 155.68 227.728C158.282 228.915 160.706 230.422 162.016 233.098C162.388 233.878 162.565 235.207 162.14 235.792C161.733 236.377 160.37 236.661 159.574 236.484C157.928 236.129 156.371 235.42 154.796 234.8C139.399 228.827 124.215 229.021 109.208 236.165C108.323 236.59 107.421 237.069 106.465 237.246C105.899 237.352 104.943 237.069 104.678 236.625C104.395 236.165 104.465 235.066 104.837 234.711C105.934 233.648 107.155 232.655 108.483 231.893C117.986 226.416 126.126 224.271 137.753 224.236L137.753 224.254Z" fill="#8D0044"/>
<path d="M612.298 102.343C611.413 102.236 610.829 102.236 610.281 102.112C598.831 99.684 587.522 101.137 576.214 103.158C574.55 103.459 572.869 103.743 571.188 103.938C569.701 104.097 568.321 103.796 567.666 102.219C566.941 100.428 567.949 99.2231 569.277 98.2837C569.949 97.8051 570.763 97.4507 571.577 97.2202C583.24 93.9943 595.061 92.2396 607.148 94.0652C609.466 94.4197 611.714 95.4832 613.873 96.4758C615.413 97.1848 617.058 98.3546 616.581 100.322C616.014 102.715 613.731 102.095 612.316 102.343L612.298 102.343Z" fill="#976D00"/>
<path d="M302.849 351.677C298.371 351.269 295.416 349.036 293.168 345.703C289.841 340.758 288.302 335.157 287.859 329.326C287.399 322.98 287.364 316.599 287.151 310.254C287.151 309.829 287.027 309.35 287.187 308.996C287.558 308.18 288.072 307.453 288.532 306.674C289.133 307.312 290.107 307.879 290.284 308.623C290.744 310.538 290.868 312.523 291.08 314.508C291.876 322.165 293.664 329.556 296.832 336.575C299.238 341.91 300.778 342.673 306.724 341.893C309.326 341.556 311.113 342.3 311.697 344.055C312.387 346.182 311.308 347.76 309.662 348.699C307.503 349.904 305.114 350.72 302.831 351.712L302.849 351.677Z" fill="#E52481"/>
<path d="M342.242 97.1493C341.817 98.585 341.499 100.056 340.932 101.421C336.19 113.013 333.234 125.048 331.889 137.509C331.641 139.884 331.04 142.241 330.438 144.545C330.12 145.751 329.695 147.098 328.881 147.984C328.031 148.906 326.633 149.863 325.518 149.827C324.793 149.81 323.66 148.09 323.519 147.027C323.218 144.811 323.2 142.489 323.519 140.274C324.899 130.738 326.881 121.326 331.022 112.552C333.004 108.351 335.234 104.239 337.57 100.216C338.419 98.7446 339.888 97.6279 341.074 96.3517C341.463 96.6176 341.87 96.8657 342.26 97.1316L342.242 97.1493Z" fill="#E5AF24"/>
<path d="M476.297 366.105C476.828 367.044 477.465 367.948 477.872 368.941C482.384 379.859 485.446 391.185 485.853 403.025C486.012 407.917 485.198 412.88 484.384 417.737C484.048 419.687 482.791 421.672 481.446 423.196C479.765 425.128 477.111 425.199 475.27 423.941C473.394 422.664 472.74 420.36 474.138 417.896C479.925 407.793 480.137 396.822 479.075 385.744C478.58 380.71 477.164 375.765 476.155 370.784C475.854 369.313 475.553 367.842 475.252 366.371C475.606 366.282 475.96 366.193 476.314 366.105L476.297 366.105Z" fill="#E5AF24"/>
<path d="M443.752 82.9518C441.823 84.6534 439.805 83.8912 437.77 83.3949C431.47 81.8351 425.241 79.8854 418.852 78.9283C412.464 77.9534 405.933 77.9711 399.474 77.5635C398.076 77.4749 396.607 77.6167 395.262 77.2976C394.448 77.1026 393.811 76.2164 393.085 75.6492C393.74 74.8339 394.271 73.859 395.085 73.2741C395.705 72.831 396.696 72.7955 397.527 72.7601C402.146 72.5474 406.783 72.2461 411.42 72.2638C416.605 72.2815 421.825 72.3879 426.993 72.9019C431.966 73.3982 436.532 75.3656 440.673 78.2193C442.301 79.336 443.876 80.5412 443.77 82.9518L443.752 82.9518Z" fill="#E52481"/>
<path d="M175.554 131.376C179.501 129.586 183.164 130.383 186.685 130.88C200.985 132.9 213.833 138.519 225.318 147.257C227.424 148.852 229.229 150.926 230.893 153C231.406 153.638 231.317 155.18 230.893 155.978C230.662 156.421 228.964 156.527 228.238 156.173C226.221 155.18 224.185 154.081 222.469 152.646C210.364 142.578 196.153 137.349 181.005 134.247C179.147 133.857 177.023 133.91 175.554 131.394L175.554 131.376Z" fill="#E52481"/>
<path d="M309.768 475.91C309.892 483.744 307.113 488.476 303.362 492.659C299.185 497.339 293.752 500.015 287.682 501.398C287.134 501.522 286.496 501.752 286.019 501.575C285.063 501.22 284.196 500.618 283.293 500.122C283.753 499.324 284.019 498.207 284.709 497.782C286.249 496.825 288.001 496.187 289.682 495.442C291.363 494.715 293.097 494.095 294.761 493.333C302.388 489.806 306.158 477.168 300.53 470.344C299.38 468.944 297.911 467.792 296.566 466.569C295.84 465.913 294.92 465.399 294.354 464.637C293.469 463.449 294.018 462.049 295.469 461.694C297.646 461.163 299.663 461.659 301.521 462.882C306.866 466.427 309.591 471.425 309.75 475.91L309.768 475.91Z" fill="#E52481"/>
<path d="M310.794 21.1811C309.821 22.2446 309.042 23.5916 307.857 24.3184C296.088 31.621 287.983 42.2381 280.887 53.8123C279.4 56.2229 277.772 58.5626 275.914 60.6718C275.241 61.434 273.755 61.4694 272.64 61.8417C272.374 60.6895 271.543 59.2893 271.914 58.4031C273.648 54.3973 275.259 50.2319 277.754 46.687C284.921 36.4953 293.876 28.1115 304.671 21.7837C305.645 21.2165 306.636 20.6139 307.697 20.2948C308.512 20.0467 309.467 20.2417 310.352 20.2417C310.494 20.543 310.653 20.8443 310.794 21.1456L310.794 21.1811Z" fill="#E52481"/>
<path d="M237.865 504.783C232.114 504.269 226.875 504.074 221.726 503.223C218.894 502.745 216.169 501.309 213.514 500.033C212.24 499.412 211.302 498.065 211.974 496.47C212.735 494.662 214.364 494.645 215.956 495.105C217.584 495.584 219.159 496.222 220.752 496.789C230.185 500.157 239.794 502.071 249.793 499.767C253.368 498.952 256.819 497.64 260.393 496.807C262.429 496.328 264.588 496.257 266.676 496.222C268.198 496.204 269.507 497.002 269.667 498.668C269.844 500.565 268.534 501.415 266.871 501.805C266.729 501.841 266.587 501.858 266.446 501.876C256.748 502.851 247.068 503.844 237.847 504.783L237.865 504.783Z" fill="#E52481"/>
<path d="M231.016 383.599C230.432 381.561 229.866 379.646 229.087 376.917C232.892 378.565 234.237 381.259 235.919 383.546C236.326 384.095 235.954 385.46 235.547 386.258C235.193 386.931 234.343 387.463 233.6 387.8C222.823 392.603 211.974 396.893 199.764 395.386C193.8 394.642 188.119 393.241 182.828 390.352C181.978 389.891 181.093 389.342 180.492 388.615C180.138 388.19 180.014 387.197 180.279 386.719C180.545 386.24 181.465 385.797 181.996 385.903C183.075 386.098 184.102 386.648 185.146 387.073C197.87 392.373 210.523 392.887 223.159 386.665C225.654 385.442 228.344 384.663 231.052 383.634L231.016 383.599Z" fill="#8D0044"/>
<path d="M316.068 99.2586C315.785 101.208 315.714 102.821 315.289 104.346C314.21 108.156 312.953 111.896 311.821 115.689C310.016 121.698 309.326 127.831 309.308 134.105C309.308 137.473 309.025 140.894 308.476 144.209C308.281 145.361 307.131 146.956 306.105 147.239C304.317 147.736 303.326 146.016 302.955 144.492C302.424 142.33 301.804 140.043 301.946 137.863C302.725 126.041 305.521 114.715 311.042 104.151C312.688 101.013 313.042 100.73 316.068 99.2586Z" fill="#E52481"/>
<path d="M238.414 296.872C236.113 297.226 234.131 296.056 232.061 295.294C227.035 293.433 222.115 291.2 216.983 289.693C212.275 288.311 207.373 287.46 202.489 286.769C196.189 285.865 190.119 286.928 184.367 289.746C181.235 291.289 177.996 292.582 174.97 293.93C173.395 292.37 174.28 291.466 175.094 290.704C181.536 284.784 189.022 281.912 197.87 282.373C211.107 283.064 223.212 287.495 234.963 293.203C236.379 293.894 237.653 294.922 238.98 295.791C238.785 296.145 238.608 296.517 238.414 296.872Z" fill="#E5AF24"/>
<path d="M714.799 226.983C715.931 226.7 717.082 226.15 718.197 226.186C728.266 226.416 737.823 228.383 745.645 235.296C747.627 237.033 749.184 239.284 750.777 241.411C751.414 242.28 751.803 243.449 751.998 244.531C752.423 247.012 750.706 248.412 748.441 247.349C747.061 246.711 745.751 245.754 744.671 244.672C737.132 237.069 728.213 231.964 717.79 229.465C716.746 229.216 715.79 228.632 714.799 228.206C714.799 227.798 714.799 227.391 714.799 227.001L714.799 226.983Z" fill="white"/>
<path d="M468.51 257.771C475.005 257.346 480.739 257.062 486.437 256.548C492.33 256.034 498.223 255.414 504.081 254.634C509.709 253.872 514.911 251 520.628 250.646C520.769 250.929 520.928 251.195 521.07 251.479C520.185 252.241 519.406 253.216 518.398 253.765C505.532 260.873 491.852 263.922 477.217 261.83C474.244 261.405 471.147 260.961 468.51 257.789L468.51 257.771Z" fill="#976D00"/>
<path d="M165.378 366.122C161.98 364.775 161.662 362.489 161.273 360.557C159.397 351.003 157.273 341.467 156.105 331.807C155.362 325.71 155.964 319.418 156.247 313.232C156.335 311.176 157.22 309.137 157.928 307.152C158.158 306.514 158.972 306.089 159.715 305.38C161.202 307.489 160.706 309.492 160.565 311.371C159.839 321.545 159.609 331.719 161.361 341.804C162.441 348.061 163.768 354.282 164.918 360.539C165.201 362.117 165.201 363.747 165.396 366.122L165.378 366.122Z" fill="#976D00"/>
<path d="M228.167 104.31C229.335 105.214 230.609 106.012 231.654 107.04C239.812 115.069 246.13 124.375 250.253 135.063C250.979 136.941 251.191 139.228 250.961 141.231C250.695 143.535 248.625 144.031 246.908 142.418C246.2 141.763 245.599 140.912 245.156 140.043C243.829 137.544 242.449 135.08 241.369 132.475C237.971 124.215 233.848 116.345 228.964 108.883C228.203 107.713 227.831 106.278 227.282 104.948C227.583 104.736 227.884 104.505 228.167 104.292L228.167 104.31Z" fill="white"/>
<path d="M596.318 201.725C600.087 202.842 603.963 203.675 607.591 205.146C612.687 207.202 617.66 209.595 622.58 212.094C624.155 212.892 625.642 214.221 626.597 215.692C627.217 216.632 627.199 218.511 626.633 219.539C626.19 220.354 624.438 220.992 623.412 220.833C621.801 220.602 620.049 219.929 618.811 218.901C612.033 213.246 604.299 209.666 595.769 207.628C594.813 207.397 593.752 207.096 593.079 206.476C592.336 205.802 591.433 204.597 591.61 203.835C591.77 203.108 593.15 202.541 594.106 202.133C594.707 201.885 595.504 202.08 596.211 202.08C596.247 201.956 596.3 201.849 596.335 201.725L596.318 201.725Z" fill="#E52481"/>
<path d="M440.62 224.537C438.832 222.339 439.54 220.833 440.46 219.61C450.264 206.564 461.697 196.071 479.164 195.274C480.243 195.22 481.34 195.38 483.145 195.486C482.19 196.497 481.765 197.17 481.163 197.507C480.455 197.915 479.588 198.127 478.757 198.304C467.891 200.75 459.148 206.741 451.556 214.647C449.309 216.986 447.061 219.361 444.708 221.577C443.54 222.676 442.088 223.491 440.602 224.537L440.62 224.537Z" fill="white"/>
<path d="M196.914 506.751C196.26 507.601 195.693 508.541 194.95 509.285C186.544 517.651 185.199 527.666 188.03 538.655C188.491 540.428 189.181 542.147 189.676 543.902C190.136 545.55 189.871 547.057 188.243 547.925C186.615 548.794 185.199 548.085 184.084 546.862C182.013 544.575 181.022 541.757 180.757 538.761C179.819 528.765 182.509 519.707 188.402 511.66C190.366 508.984 192.791 506.626 196.26 505.988C196.472 506.237 196.702 506.467 196.914 506.715L196.914 506.751Z" fill="white"/>
<path d="M405.332 359.298C405.367 358.589 405.332 357.88 405.473 357.189C405.792 355.434 406.411 353.768 408.499 353.68C410.411 353.609 411.172 355.133 411.561 356.675C413.295 363.517 415.083 370.359 416.569 377.271C417.383 381.1 415.968 383.599 413.348 384.131C410.57 384.68 408.216 382.713 407.65 378.689C406.747 372.255 406.199 365.768 405.491 359.316C405.438 359.316 405.367 359.316 405.314 359.316L405.332 359.298Z" fill="#E52481"/>
<path d="M229.848 561.502C231.813 561.378 233.282 561.006 234.68 561.236C250.802 563.753 267.012 564.25 283.293 563.736C287.895 563.594 288.62 563.877 292.248 565.544C291.328 566.164 290.673 566.891 289.894 567.068C287.965 567.493 286.001 567.777 284.019 567.901C267.826 568.84 251.81 567.245 235.865 564.604C233.883 564.285 231.654 564.25 229.866 561.52L229.848 561.502Z" fill="#8D0044"/>
<path d="M155.38 157.91C155.61 154.56 157.839 154.241 159.591 153.833C166.086 152.362 172.687 151.617 179.324 152.344C183.801 152.84 188.225 153.815 192.632 154.719C194.118 155.021 195.693 155.57 196.897 156.474C197.746 157.112 198.613 158.69 198.383 159.54C198.171 160.303 196.472 161.083 195.428 161.1C193.782 161.118 192.118 160.498 190.455 160.179C186.438 159.399 182.438 158.548 178.403 157.874C172.793 156.935 167.166 156.97 161.52 157.874C159.645 158.176 157.68 157.927 155.362 157.927L155.38 157.91Z" fill="white"/>
<path d="M520.38 350.507C521.902 349.39 522.84 348.256 523.99 347.955C534.36 345.119 544.642 344.534 554.482 349.94C556.075 350.808 557.579 351.943 558.853 353.201C559.402 353.751 559.667 355.186 559.313 355.824C558.959 356.462 557.685 356.941 556.836 356.888C555.455 356.817 554.022 356.445 552.748 355.895C543.828 352.049 534.573 350.684 524.946 351.783C524.114 351.872 523.247 351.801 522.415 351.694C522.043 351.641 521.707 351.305 520.362 350.507L520.38 350.507Z" fill="white"/>
<path d="M147.08 382.234C146.036 383.28 145.151 384.556 143.947 385.354C135.948 390.707 128.162 396.343 121.419 403.291C121.313 403.398 121.207 403.486 121.083 403.557C119.702 404.408 118.517 406.092 116.605 404.904C115.349 404.124 115.455 402.139 116.694 399.87C116.765 399.746 116.818 399.622 116.924 399.516C124.091 390.813 132.621 384.078 143.717 381.153C144.584 380.923 145.593 381.206 146.531 381.242C146.708 381.578 146.903 381.897 147.08 382.234Z" fill="white"/>
<path d="M280.798 578.11C280.851 580.556 279.382 581.07 278.214 581.691C264.995 588.55 252.005 588.94 239.387 580.184C238.803 579.776 238.06 579.44 237.759 578.873C237.352 578.11 237.299 577.153 237.104 576.267C237.883 576.143 238.697 575.824 239.423 575.966C240.378 576.143 241.263 576.639 242.148 577.082C253.12 582.559 264.428 582.506 275.949 579.174C277.471 578.731 279.064 578.483 280.798 578.11Z" fill="#E52481"/>
<path d="M488.631 381.702C489.499 382.925 490.153 383.51 490.401 384.237C494.489 395.687 496.719 407.386 494.843 419.598C494.648 420.856 494.383 422.115 493.976 423.302C493.392 425.022 492.312 426.457 490.26 425.926C488.207 425.412 488.03 423.622 488.171 421.831C488.207 421.406 488.26 420.981 488.384 420.573C491.551 409.814 490.543 399.037 488.525 388.243C488.242 386.719 488.101 385.159 487.977 383.617C487.941 383.245 488.224 382.855 488.631 381.702Z" fill="white"/>
<path d="M323.961 532.381C325.66 532.948 326.775 533.054 327.571 533.621C334.951 539.027 340.596 545.727 342.384 554.962C342.844 557.372 342.419 559.996 342.118 562.477C341.994 563.505 341.286 564.604 340.525 565.366C338.968 566.962 336.88 566.377 336.349 564.196C336.066 562.991 336.101 561.662 336.243 560.421C336.986 553.615 335.092 547.571 331.058 542.165C329.111 539.577 326.969 537.131 324.952 534.596C324.651 534.206 324.527 533.657 323.961 532.381Z" fill="white"/>
<path d="M292 361.071C291.664 363.162 291.469 365.857 290.797 368.409C290.054 371.209 288.195 372.592 286.089 372.521C283.948 372.45 282.32 370.961 282.09 367.877C281.807 364.244 281.966 360.575 282.214 356.941C282.302 355.612 283.028 354.229 283.753 353.077C284.727 351.553 286.302 350.861 288.125 351.127C290.071 351.411 291.027 352.776 291.292 354.601C291.576 356.551 291.717 358.519 291.983 361.071L292 361.071Z" fill="#E52481"/>
<path d="M513.106 495.3C515.513 494.91 516.504 492.925 517.831 491.33C518.999 489.93 520.132 488.441 521.495 487.271C522.574 486.332 524.061 485.889 525.335 487.147C526.715 488.494 525.884 489.699 524.928 490.851C523.123 493.014 521.406 495.283 519.46 497.321C517.301 499.59 514.664 501.114 511.496 499.625C508.487 498.207 507.319 495.354 507.479 492.234C507.585 490.036 508.311 487.821 509.089 485.729C510.204 482.698 511.531 479.72 512.965 476.814C513.39 475.963 514.522 474.864 515.248 474.917C516.823 475.023 517.124 476.601 516.752 477.859C516.079 480.146 515.195 482.379 514.274 484.577C513.513 486.403 512.452 488.086 511.779 489.93C511.071 491.88 511.16 493.812 513.106 495.283L513.106 495.3Z" fill="#E5AF24"/>
<path d="M392.024 245.559C390.325 245.062 388.59 244.602 386.909 244.052C374.22 239.922 361.319 236.98 347.852 237.583C344.33 237.742 340.809 238.079 337.287 238.309C336.313 238.38 335.252 238.54 334.367 238.274C333.73 238.079 333.305 237.21 332.792 236.643C333.305 236.218 333.747 235.544 334.314 235.402C335.96 235.03 337.641 234.8 339.304 234.676C356.329 233.435 372.805 235.686 388.537 242.51C389.882 243.095 391.121 243.893 392.413 244.602L392.006 245.559L392.024 245.559Z" fill="#E5AF24"/>
<path d="M492.277 373.868C495.763 379.806 499.02 385.886 500.984 392.532C503.957 402.618 506.275 412.827 504.559 423.48C504.382 424.596 504.24 425.766 503.78 426.759C503.479 427.415 502.364 428.336 502.046 428.194C501.285 427.858 500.577 427.042 500.241 426.245C499.94 425.518 500.046 424.561 500.17 423.728C502.842 407.457 499.267 392.213 492.543 377.484C492.082 376.474 491.799 375.392 491.445 374.347C491.728 374.187 491.994 374.028 492.277 373.85L492.277 373.868Z" fill="#E52481"/>
<path d="M202.188 466.923C204.595 467.047 205.798 468.43 205.444 470.238C205.179 471.567 204.506 472.896 203.728 474.031C200.772 478.267 200.312 482.556 202.825 487.165C203.498 488.388 203.975 489.753 204.365 491.1C204.807 492.606 205.197 494.308 203.356 495.176C201.586 496.009 200.206 494.84 199.48 493.492C198.065 490.922 196.49 488.281 195.906 485.481C194.755 479.915 195.746 474.492 198.985 469.706C199.852 468.412 201.409 467.597 202.188 466.941L202.188 466.923Z" fill="#8D0044"/>
<path d="M106.182 287.868C106.837 286.875 107.279 285.634 108.146 284.908C117.65 277.038 128.285 273.121 140.656 276.329C142.744 276.861 144.62 278.403 146.425 279.697C147.097 280.175 147.327 281.256 147.717 282.001C146.089 283.614 144.761 282.621 143.629 282.001C136.692 278.101 129.613 278.403 122.357 280.937C117.543 282.621 112.836 284.464 108.73 287.602C108.199 288.009 107.562 288.275 106.961 288.612C106.695 288.364 106.43 288.133 106.147 287.885L106.182 287.868Z" fill="#8D0044"/>
<path d="M344.56 374.488C344.649 375.729 344.596 376.988 344.843 378.193C345.392 380.798 345.799 383.51 346.843 385.939C348.56 389.962 351.621 392.55 356.223 392.763C361.248 392.993 364.345 390.104 366.735 386.151C367.354 385.141 367.796 384.007 368.451 382.624C370.168 388.633 366.274 394.819 360.204 396.361C353.586 398.045 346.843 395.014 343.817 388.863C341.481 384.095 341.127 379.274 343.357 374.506L344.56 374.471L344.56 374.488Z" fill="white"/>
<path d="M327.111 353.999C326.527 354.974 326.262 355.789 325.695 356.321C319.997 361.78 314.316 367.257 308.458 372.556C307.184 373.709 305.308 374.435 303.574 374.772C301.734 375.127 300.672 373.407 301.574 371.741C302.176 370.66 303.043 369.632 304.016 368.852C309.679 364.208 315.378 359.6 321.147 355.098C322.651 353.928 324.35 352.687 327.093 353.999L327.111 353.999Z" fill="#E52481"/>
<path d="M309.485 531.778C310.299 532.15 311.29 532.345 311.909 532.948C319.891 540.711 324.368 550.265 326.085 561.201C326.173 561.75 326.191 562.335 326.12 562.885C325.925 564.569 325.217 565.951 323.359 566.111C321.483 566.288 320.545 565.047 320.138 563.399C319.944 562.583 319.891 561.715 319.944 560.882C320.404 551.612 316.811 543.813 311.255 536.705C310.264 535.447 309.467 534.047 308.565 532.717C308.865 532.398 309.166 532.097 309.467 531.778L309.485 531.778Z" fill="white"/>
<path d="M143.416 203.391C144.337 202.948 145.204 202.293 146.177 202.08C152.265 200.839 158.459 200.272 164.564 201.495C167.201 202.027 169.696 203.64 172.068 205.058C173.271 205.784 174.05 207.45 172.988 208.709C172.333 209.471 170.829 209.684 169.679 209.826C168.9 209.914 168.033 209.507 167.272 209.187C161.22 206.564 154.849 205.767 148.336 205.572C146.743 205.518 145.168 205.058 143.576 204.792C143.523 204.331 143.487 203.852 143.434 203.391L143.416 203.391Z" fill="white"/>
<path d="M135.754 323.548C134.763 323.264 133.683 323.14 132.798 322.644C131.188 321.757 129.666 320.729 128.179 319.648C122.091 315.27 115.384 312.505 107.899 311.672C106.5 311.512 105.102 311.229 103.775 310.75C103.297 310.573 102.89 309.705 102.837 309.12C102.802 308.765 103.421 308.162 103.881 307.985C104.518 307.719 105.262 307.666 105.952 307.648C117.543 307.347 127.082 311.885 134.993 320.144C135.612 320.8 135.913 321.775 136.373 322.59C136.178 322.909 135.966 323.211 135.771 323.53L135.754 323.548Z" fill="white"/>
<path d="M205.374 403.309C203.692 403.539 202.4 403.858 201.126 403.876C195.817 403.947 190.774 402.44 185.854 400.686C181.872 399.268 177.996 397.566 174.174 395.758C172.723 395.085 170.741 393.879 171.767 391.93C172.935 389.714 174.775 391.327 176.138 392.107C183.854 396.503 192.225 398.895 200.861 400.526C202.082 400.757 203.285 401.217 204.471 401.643C204.666 401.714 204.736 402.104 205.391 403.309L205.374 403.309Z" fill="#8D0044"/>
<path d="M297.787 535.323C298.902 536.51 300.3 537.538 301.096 538.903C304.512 544.788 305.786 551.045 303.273 557.621C302.742 559.021 301.84 560.439 300.725 561.396C299.15 562.743 297.309 561.786 297.185 559.677C297.132 558.72 297.345 557.691 297.681 556.788C299.964 550.548 300.513 544.398 297.292 538.283C296.938 537.609 296.955 536.723 296.796 535.943C297.132 535.748 297.469 535.536 297.805 535.341L297.787 535.323Z" fill="white"/>
<path d="M403.597 392.55C407.615 391.043 411.437 393.56 415.384 393.454C419.595 393.348 423.825 393.419 428.055 393.436C432.072 393.436 436.036 391.682 440.071 392.905C440.584 394.642 439.345 395.102 438.319 395.297C435.434 395.865 432.514 396.379 429.577 396.627C422.126 397.265 414.658 397.708 407.349 395.457C405.951 395.031 404.642 394.322 403.297 393.755C403.385 393.365 403.491 392.958 403.58 392.568L403.597 392.55Z" fill="#E52481"/>
<path d="M200.932 521.657C200.56 523.075 200.542 523.802 200.224 524.316C197.003 529.279 197.374 534.472 199.091 539.79C199.569 541.261 200.082 542.767 200.224 544.274C200.294 545.089 199.799 546.525 199.233 546.738C198.366 547.039 196.755 546.862 196.277 546.259C194.915 544.522 193.322 542.572 192.968 540.499C191.888 534.047 193.764 528.198 197.941 523.181C198.454 522.579 199.463 522.384 200.914 521.657L200.932 521.657Z" fill="white"/>
<path d="M286.567 130.986C286.302 133.946 286.072 136.906 285.736 139.848C285.612 140.965 285.399 142.135 284.886 143.11C284.479 143.889 283.559 144.882 282.869 144.882C282.196 144.882 281.117 143.854 280.922 143.092C280.497 141.337 280.232 139.458 280.391 137.668C280.763 133.308 281.4 128.965 281.948 124.623C281.984 124.339 282.019 124.056 282.09 123.79C282.444 122.531 282.904 121.042 284.461 121.415C285.24 121.609 286.196 122.921 286.284 123.807C286.532 126.182 286.373 128.593 286.373 131.004C286.426 131.004 286.479 131.004 286.55 131.004L286.567 130.986Z" fill="white"/>
<path d="M200.401 372.415C200.878 373.833 201.091 375.073 201.693 376.084C202.825 377.98 203.852 380.16 205.515 381.472C209.886 384.911 214.647 383.847 217.124 378.849C218.452 376.172 218.982 373.088 219.92 369.969C221.389 370.341 221.46 371.599 221.566 372.84C221.885 376.456 221.425 379.912 219.248 382.943C215.921 387.552 209.851 388.012 204.099 384.131C199.941 381.33 198.171 376.208 200.383 372.415L200.401 372.415Z" fill="white"/>
<path d="M117.95 334.785C117.419 335.228 116.995 335.778 116.428 336.043C110.571 338.755 104.695 341.45 98.8023 344.091C96.9618 344.924 95.1213 346.306 92.626 344.906C92.8561 344.144 92.8561 343.133 93.3339 342.726C99.4571 337.621 106.023 333.403 114.305 333.013C116.004 332.942 116.021 333.03 117.933 334.785L117.95 334.785Z" fill="#8D0044"/>
<path d="M369.124 416.851C370.593 416.124 372.061 415.379 373.548 414.688C379.618 411.87 385.193 408.378 389.511 403.132C390.219 402.281 391.086 401.395 392.077 401.005C392.979 400.65 394.395 400.597 395.138 401.076C396.395 401.891 396.059 403.327 395.315 404.479C394.873 405.188 394.307 405.844 393.687 406.411C387.175 412.349 379.583 416.195 370.946 417.932C370.433 418.038 369.867 417.861 369.336 417.825C369.265 417.506 369.177 417.17 369.106 416.851L369.124 416.851Z" fill="#E52481"/>
<path d="M403.527 164.362C402.27 168.811 401.12 173.313 399.669 177.691C399.368 178.63 397.917 179.179 396.997 179.906C396.324 178.914 395.191 177.992 395.068 176.946C394.519 171.966 395.492 167.144 397.474 162.571C398.147 161.029 399.333 159.452 401.315 160.054C403.314 160.657 403.261 162.554 403.509 164.379L403.527 164.362Z" fill="white"/>
<path d="M203.568 348.061C204.683 347.919 205.515 347.635 206.258 347.76C213.709 349.053 220.77 351.411 227.105 355.665C227.335 355.824 227.601 355.948 227.831 356.126C230.025 357.721 230.804 359.387 229.937 360.61C229.087 361.833 227.389 361.673 225.053 359.99C219.62 356.037 213.514 353.449 207.249 351.163C205.869 350.666 204.099 350.649 203.568 348.061Z" fill="#8D0044"/>
<path d="M502.4 380.249C508.293 389.413 512.717 399.232 513.814 410.275C513.991 412.065 513.726 413.926 513.513 415.734C513.46 416.142 512.77 416.815 512.399 416.797C511.797 416.762 510.859 416.39 510.7 415.929C510.222 414.635 509.797 413.199 509.815 411.835C510.009 400.686 507.089 390.334 502.4 380.249Z" fill="#976D00"/>
<path d="M251.722 312.576C251.81 313.923 252.111 314.862 251.917 315.695C250.147 323.406 248.342 331.098 246.395 338.755C246.023 340.191 245.015 341.503 244.094 342.726C243.776 343.151 242.608 343.47 242.272 343.24C241.705 342.832 241.192 341.91 241.228 341.237C241.298 340.138 241.812 339.074 242.166 338.011C244.537 330.939 246.926 323.867 249.333 316.794C249.793 315.43 249.722 313.746 251.722 312.594L251.722 312.576Z" fill="#E52481"/>
<path d="M247.846 207.309C234.343 206.546 221.814 211.314 208.86 213.707C208.665 213.743 208.417 213.441 207.851 213.087C208.435 212.52 208.86 211.758 209.479 211.545C221.354 207.202 233.494 204.49 246.254 205.696C246.767 205.749 247.245 206.032 247.74 206.21C247.775 206.582 247.793 206.972 247.829 207.344L247.846 207.309Z" fill="#E5AF24"/>
<path d="M208.878 534.632C210.541 536.138 209.869 537.361 209.267 538.425C206.984 542.519 207.196 546.791 208.205 551.169C208.524 552.534 208.824 553.969 208.701 555.316C208.63 556.096 207.833 557.071 207.108 557.426C206.665 557.638 205.497 557 205.055 556.433C204.382 555.564 203.94 554.483 203.639 553.42C201.87 547.305 203.498 541.721 206.577 536.439C207.055 535.624 208.152 535.199 208.895 534.632L208.878 534.632Z" fill="white"/>
<path d="M244.006 540.693C244.165 541.456 244.342 542.111 244.413 542.767C244.749 545.816 245.05 548.865 245.404 551.913C245.493 552.746 245.847 553.544 245.935 554.377C246.112 556.061 246.377 557.869 244.378 558.72C242.909 559.358 241.015 558.259 240.237 556.043C239.688 554.501 239.369 552.746 239.493 551.116C239.67 548.475 240.219 545.834 240.767 543.246C241.051 541.899 241.528 540.445 244.006 540.676L244.006 540.693Z" fill="white"/>
<path d="M285.895 539.719C286.39 540.764 287.134 541.775 287.311 542.891C288.089 547.624 288.85 552.374 289.293 557.16C289.576 560.191 288.125 561.999 286.249 561.839C284.32 561.68 283.258 559.694 283.948 556.752C285.045 552.126 285.258 547.535 284.461 542.856C284.32 541.97 284.585 541.013 284.674 540.073C285.081 539.949 285.488 539.825 285.877 539.701L285.895 539.719Z" fill="white"/>
<path d="M284.603 286.556C287.098 281.434 304.087 274.911 312.617 275.708C307.91 277.552 303.167 279.342 298.495 281.256C293.912 283.135 289.682 285.971 284.603 286.538L284.603 286.556Z" fill="#E5AF24"/>
<path d="M216.169 275.46C221.106 273.227 224.982 276.063 228.964 276.949C232.397 277.711 235.883 278.739 238.361 282.302C235.069 283.596 232.892 281.806 230.574 281.274C228.114 280.725 225.654 280.033 223.247 279.271C220.947 278.527 218.186 278.686 216.169 275.46Z" fill="#E5AF24"/>
<path d="M253.81 547.411C254.341 549.715 254.801 552.037 255.421 554.306C256.199 557.177 255.775 559.021 254.111 559.358C252.501 559.677 250.501 558.117 250.395 555.565C250.253 552.09 250.66 548.563 251.12 545.107C251.226 544.292 252.483 543.618 253.208 542.874C253.651 543.795 254.182 544.682 254.483 545.639C254.642 546.135 254.394 546.755 254.323 547.305L253.81 547.429L253.81 547.411Z" fill="white"/>
<path d="M275.294 543.707C275.489 544.327 275.79 544.947 275.843 545.585C276.179 549.467 276.427 553.367 276.745 557.248C276.887 558.932 276.692 560.545 274.728 560.793C272.888 561.024 272.003 559.659 271.649 557.993C271.525 557.461 271.472 556.858 271.56 556.327C272.056 552.853 272.516 549.379 273.135 545.94C273.295 545.089 273.949 544.309 274.374 543.512C274.693 543.583 274.993 543.636 275.312 543.707L275.294 543.707Z" fill="white"/>
<path d="M219.708 540.109C219.956 541.881 220.381 543.069 220.239 544.185C219.85 547.393 220.327 550.353 221.867 553.225C222.575 554.537 223.708 556.398 221.867 557.337C219.867 558.383 218.859 556.344 218.08 554.909C215.709 550.495 216.027 545.922 217.744 541.385C217.85 541.083 218.399 540.942 219.69 540.109L219.708 540.109Z" fill="white"/>
<path d="M371.548 407.102C373.123 405.702 373.92 405.011 374.716 404.319C377.601 401.838 380.485 399.356 383.37 396.857C383.901 396.396 384.343 395.599 384.927 395.475C385.918 395.28 386.998 395.475 388.059 395.528C387.936 396.538 388.166 397.921 387.599 398.506C386.024 400.101 384.202 401.501 382.308 402.724C379.937 404.266 377.441 405.595 374.928 406.889C374.309 407.208 373.424 407.013 371.566 407.102L371.548 407.102Z" fill="#E52481"/>
<path d="M525.353 447.887C527.795 451.715 527.175 455.845 527.388 459.727C527.494 461.801 526.645 463.839 524.22 464.743C524.025 464.229 523.671 463.786 523.778 463.484C524.804 460.383 524.114 457.423 523.353 454.392C522.804 452.158 522.203 449.677 525.353 447.887Z" fill="#E5AF24"/>
<path d="M310.423 549.715C311.626 550.513 312.263 550.708 312.44 551.098C313.768 554.076 313.732 557.142 312.582 560.155C312.104 561.414 310.954 562.477 309.609 561.768C308.865 561.378 308.14 559.889 308.281 559.021C308.724 556.132 309.556 553.314 310.423 549.715Z" fill="white"/>
<path d="M185.164 404.869C181.73 406.021 176.244 404.745 174.793 402.901C174.492 402.511 174.191 401.731 174.386 401.43C174.705 400.934 175.413 400.402 175.961 400.402C176.74 400.402 177.572 400.774 178.297 401.147C180.368 402.21 182.403 403.344 185.164 404.833L185.164 404.869Z" fill="#8D0044"/>
<path d="M227.566 548.475C229.353 550.141 229.583 552.409 229.937 554.554C230.025 555.068 229.424 556.096 228.981 556.185C228.291 556.327 227.282 556.114 226.769 555.653C224.999 554.04 225.336 551.151 227.566 548.492L227.566 548.475Z" fill="white"/>
<path d="M238.467 512.493C238.078 515.205 237.741 517.917 237.228 520.611C237.14 521.09 236.219 521.763 235.759 521.71C235.264 521.657 234.414 520.806 234.467 520.399C234.821 517.456 235.14 514.443 237.299 512.192C237.688 512.298 238.078 512.405 238.467 512.511L238.467 512.493Z" fill="white"/>
<path d="M270.162 512.387C272.374 513.982 272.604 515.932 272.392 517.864C272.321 518.555 271.312 519.406 270.552 519.672C270.162 519.796 269.065 518.91 268.835 518.272C268.109 516.251 268.021 514.23 270.162 512.387Z" fill="white"/>
<path d="M407.101 399.037C410.659 400.402 414.216 401.749 418.481 403.38C413.826 404.266 409.19 402.759 406.659 399.941C406.801 399.64 406.96 399.339 407.101 399.037Z" fill="#E52481"/>
<path d="M166.723 388.633C166.422 388.207 165.608 387.552 165.52 386.807C165.343 385.531 167.803 383.369 169.342 383.457C169.98 383.493 170.971 384.184 171.13 384.769C171.555 386.222 169.112 388.526 166.723 388.633Z" fill="#8D0044"/>
<path d="M292.797 515.223C289.399 513.38 289.133 512.582 290.496 509.48C293.115 510.951 293.345 511.465 292.797 515.223Z" fill="white"/>
<path d="M208.046 508.629C208.47 509.179 208.612 509.285 208.612 509.409C208.718 511.306 207.922 512.688 206.099 513.273C205.781 513.38 204.878 512.83 204.843 512.547C204.648 510.296 206.17 509.427 208.028 508.629L208.046 508.629Z" fill="white"/>
<path d="M254.306 522.827C250.625 521.958 250.572 521.746 252.554 517.439C253.208 519.459 253.651 520.842 254.306 522.827Z" fill="white"/>
<path d="M311.892 508.683C309.715 507.442 308.653 506.431 309.609 504.251C311.591 504.996 312.316 506.219 311.892 508.683Z" fill="white"/>
<path d="M221.726 516.783C222.026 515.684 222.327 514.567 222.734 513.114C223.831 514.461 223.831 515.767 222.734 517.031C222.398 516.942 222.062 516.871 221.726 516.783Z" fill="white"/>
</g>
<defs>
<clipPath id="clip0_205_363">
<rect width="809" height="667" fill="white"/>
</clipPath>
</defs>
</svg>
