<svg width="103" height="58" viewBox="0 0 103 58" fill="none" xmlns="http://www.w3.org/2000/svg">
<g clip-path="url(#clip0_221_263)" filter="url(#filter0_d_221_263)">
<path d="M81.9593 19.507C85.4298 21.1946 88.6899 23.1559 91.6318 25.6007C93.2624 26.9556 94.7622 28.4344 95.9502 30.1953C96.868 31.5556 97.5067 33.0181 97.6637 34.666C97.6822 34.8577 97.7923 35.0709 97.9253 35.2153C99.1657 36.5551 99.3521 38.3612 98.3809 39.8109C97.4086 41.2627 95.6745 41.8002 93.9262 41.2143C93.7496 41.155 93.4913 41.169 93.3299 41.2552C90.7162 42.6672 87.879 43.3672 84.9677 43.8066C80.1216 44.539 75.2516 44.5627 70.3675 44.2665C61.0732 43.7022 51.9785 42.0112 43.0222 39.5556C34.6817 37.2691 26.5854 34.3483 18.949 30.2739C17.835 29.6794 16.744 29.044 15.6453 28.4301C13.486 29.8926 11.5873 29.9907 9.936 28.7413C8.65201 27.7709 7.54569 25.8226 8.62367 23.3584C7.6863 22.2458 6.72276 21.1957 5.87149 20.0649C4.85454 18.7132 4.13952 17.2 4.01744 15.4886C3.83869 12.9813 5.01368 11.1148 6.9789 9.66625C9.03895 8.14873 11.4205 7.36466 13.8839 6.7863C14.758 6.58167 15.6442 6.42765 16.6197 6.23056C16.1598 7.0631 15.7663 7.80408 15.3368 8.52353C15.2638 8.64523 15.0469 8.70016 14.8856 8.75078C13.4054 9.21713 11.886 9.58547 10.4548 10.1671C9.48475 10.5612 8.55828 11.1601 7.75169 11.83C6.22137 13.1019 5.81481 14.7616 6.47206 16.6356C7.15766 18.5872 8.50378 20.0875 9.97633 21.4876C10.0657 21.5727 10.3676 21.521 10.5246 21.4424C12.8299 20.2792 15.6431 21.2722 16.6219 23.6169C17.0143 24.5571 17.0732 25.5243 16.7582 26.5797C18.1315 27.3369 19.4885 28.1231 20.8793 28.8458C27.7178 32.3946 34.9291 35.0085 42.3344 37.1248C48.3402 38.8405 54.4331 40.1717 60.6155 41.085C65.8757 41.8615 71.1653 42.3451 76.4898 42.2783C80.7571 42.2256 85.0036 41.9348 89.115 40.6747C90.0927 40.3753 91.0356 39.9649 91.998 39.6041C90.7369 36.7823 92.5136 34.2201 95.3682 34.0704C94.9954 32.4441 94.0842 31.1183 92.9997 29.8991C90.5265 27.1182 87.4713 25.0655 84.3126 23.1397C83.9812 22.9373 83.6837 22.6131 83.4842 22.2792C82.9436 21.3745 82.4629 20.4332 81.9593 19.507Z" fill="white"/>
<path d="M38.8432 33.7764C39.2563 32.7736 39.8787 31.9465 40.5828 31.1775C42.6363 28.9362 45.0898 27.1904 47.6992 25.6524C52.4701 22.8392 57.5134 20.6701 62.9774 19.5522C65.08 19.1224 67.2011 18.8747 69.3352 19.3745C70.1058 19.5554 70.8165 19.8731 71.3571 20.4612C72.2433 21.4251 72.3174 22.5463 71.9163 23.7267C71.4541 25.0848 70.5571 26.1672 69.5663 27.1732C67.54 29.2292 65.1824 30.8619 62.6973 32.3245C59.374 34.2804 55.8817 35.8776 52.2052 37.071C51.9153 37.1647 51.5578 37.2056 51.2689 37.1302C47.2676 36.0801 43.2729 35.0063 39.2781 33.9358C39.1419 33.8991 39.0121 33.8399 38.8432 33.7774V33.7764Z" fill="#E5AF24"/>
<path d="M53.4859 14.8101C52.1158 15.3949 50.7784 15.9399 49.4639 16.5333C46.4567 17.8903 43.5933 19.4994 40.8956 21.3917C40.6896 21.5361 40.525 21.6718 40.2275 21.5059C36.2295 19.2743 32.4331 16.781 29.343 13.3701C28.2607 12.1757 27.3124 10.8887 26.9451 9.27743C26.5843 7.69206 27.2808 6.33071 28.7969 5.69097C30.1823 5.10507 31.6385 5.13846 33.0805 5.34093C38.5446 6.10993 43.4287 8.38674 48.1047 11.1418C49.8138 12.1488 51.4084 13.3443 53.0532 14.4579C53.1993 14.557 53.3279 14.6808 53.487 14.8112L53.4859 14.8101Z" fill="#E5AF24"/>
<path d="M68.5723 39.8141C69.3745 39.2702 70.0546 38.8093 70.7598 38.3311C70.5625 37.8787 70.3707 37.4598 70.1952 37.0333C69.9206 36.3634 70.144 35.7645 70.7533 35.5071C71.3364 35.2594 71.9054 35.5017 72.2226 36.1383C72.3425 36.3784 72.4504 36.624 72.5975 36.9396C73.0662 36.5378 73.5316 36.1749 73.9535 35.7678C74.7317 35.0171 75.4805 34.2363 76.2489 33.4759C76.468 33.2594 76.5149 33.0634 76.3623 32.7747C76.128 32.3321 75.9416 31.8636 75.7476 31.4015C75.4653 30.7316 75.6723 30.1145 76.2555 29.8539C76.8441 29.5911 77.4501 29.8453 77.7716 30.4915C77.8501 30.6487 77.9286 30.807 78.0114 30.9729C79.5745 28.6541 79.8044 25.9378 77.9875 24.5614C76.7296 27.0805 74.8865 29.1398 72.7992 30.9977C69.1565 34.2406 65.007 36.7091 60.5522 38.6876C60.1893 38.8491 59.6704 38.7145 59.2334 38.6531C58.2764 38.5185 57.3259 38.3418 56.3569 38.0651C56.5793 37.9724 56.8005 37.8755 57.0251 37.7883C61.9616 35.8572 66.5602 33.3488 70.6225 29.9443C72.7654 28.1479 74.7263 26.1791 75.9318 23.6233C76.2991 22.8446 76.5367 21.9701 76.6468 21.116C76.8419 19.6007 76.1443 18.4493 74.8516 17.6416C73.6297 16.878 72.264 16.5355 70.8514 16.3782C66.4043 15.8839 62.1109 16.6895 57.9003 17.997C51.8858 19.8645 46.3204 22.6077 41.3687 26.5033C39.0372 28.3374 37.738 29.7537 35.6627 32.7446C35.0065 32.5141 34.334 32.2782 33.595 32.0187C33.7138 31.8 33.8075 31.6137 33.9143 31.436C35.6278 28.583 37.9788 26.304 40.6166 24.3115C47.0071 19.4843 54.1715 16.2985 62.0368 14.6776C65.117 14.0422 68.2409 13.7578 71.3877 14.2113C73.3845 14.4988 75.281 15.047 76.8615 16.3696C77.6081 16.9943 78.1684 17.7536 78.527 18.6572C79.3924 20.8371 80.2808 23.0094 81.1266 25.1968C81.8525 27.073 81.5103 28.8975 80.72 30.6692C79.5396 33.3165 77.6289 35.4188 75.499 37.337C74.5486 38.1932 73.5273 38.973 72.5136 39.757C72.3076 39.9164 71.9893 40.0155 71.7277 40.0069C70.7315 39.9757 69.7374 39.8895 68.5723 39.8131V39.8141Z" fill="#E5AF24"/>
<path d="M33.3683 28.3525C32.9519 28.9642 32.5595 29.5415 32.1159 30.1942C31.0902 29.4866 30.0515 28.8092 29.0542 28.0768C25.7156 25.6266 22.6669 22.8802 20.281 19.48C19.0547 17.732 18.0531 15.8731 17.677 13.746C17.3609 11.9614 17.6607 10.3125 18.7136 8.78416C19.8134 7.18479 20.9012 5.57034 21.8691 3.89127C23.0637 1.82124 24.9057 0.791615 27.1652 0.326343C29.9926 -0.255247 32.8037 0.00108341 35.5831 0.604213C43.4168 2.30698 50.2945 5.94622 56.5346 10.8413C57.4109 11.5284 58.235 12.2802 59.1571 13.0653C58.2873 13.3163 57.5363 13.5489 56.7744 13.7374C56.6469 13.7686 56.4441 13.6372 56.3199 13.5317C51.7562 9.64901 46.6496 6.66244 41.0482 4.4944C38.2383 3.40769 35.3477 2.61177 32.3393 2.3059C30.4363 2.11204 28.531 2.11527 26.6846 2.71517C25.1749 3.20629 23.9727 4.04852 23.6621 5.70712C23.4637 6.76691 23.6337 7.81916 24.0239 8.82078C25.1226 11.6404 26.8077 14.0799 29.0051 16.1714C31.693 18.7304 34.6643 20.9297 37.8252 22.8845C37.993 22.989 38.1609 23.0923 38.4018 23.241C37.8176 23.759 37.2606 24.2534 36.6229 24.8188C35.1613 23.801 33.668 22.8242 32.2445 21.7558C28.8885 19.2355 25.8409 16.3998 23.5869 12.8402C22.8435 11.6673 22.2767 10.3846 21.6303 9.1525C19.736 10.1627 19.2117 12.5386 20.4205 15.1063C20.5295 14.9393 20.6265 14.7939 20.7202 14.6453C21.1311 13.9905 21.7513 13.7945 22.3279 14.138C22.9034 14.4816 23.0222 15.1009 22.6342 15.7794C22.3574 16.263 22.0522 16.7304 21.7971 17.2237C21.7252 17.3626 21.7088 17.6222 21.7928 17.7353C22.6887 18.9458 23.6108 20.1392 24.5853 21.4154C24.8926 20.8995 25.1128 20.5183 25.3461 20.1445C25.7439 19.508 26.3336 19.3282 26.9124 19.6567C27.4737 19.9755 27.623 20.6141 27.271 21.2453C27.0083 21.7148 26.7064 22.1661 26.4709 22.6486C26.4044 22.7843 26.4415 23.0794 26.5472 23.171C27.6732 24.1532 28.822 25.1085 30.0177 26.1155C30.3131 25.6212 30.5518 25.2055 30.8068 24.7994C31.1872 24.192 31.8358 24.0143 32.3917 24.3525C32.917 24.6713 33.0587 25.3099 32.7306 25.9109C32.602 26.1468 32.4592 26.3762 32.3219 26.6077C32.1868 26.8393 32.0516 27.0698 31.887 27.3509C32.3829 27.6837 32.8702 28.01 33.3716 28.3471L33.3683 28.3525Z" fill="#E5AF24"/>
<path d="M32.9802 38.834C37.4633 40.1599 41.8919 41.4695 46.3815 42.7964C44.8304 42.9655 43.3143 43.1173 41.7948 42.9709C40.2885 42.8244 38.7898 42.5928 37.2627 42.3957C36.6774 44.1297 38.6165 46.3225 41.3708 46.7997C41.2815 46.566 41.2019 46.3624 41.1267 46.1578C40.9065 45.5611 41.1507 44.9612 41.7098 44.7243C42.2548 44.4938 42.8543 44.6963 43.1366 45.252C43.42 45.811 43.6489 46.3969 43.9225 46.9612C43.9802 47.0818 44.1296 47.2434 44.2364 47.2434C45.7711 47.2423 47.3058 47.2165 48.9811 47.1949C48.7489 46.6457 48.5865 46.2601 48.423 45.8756C48.1232 45.168 48.3151 44.5498 48.9167 44.2827C49.5282 44.0123 50.1255 44.2773 50.4514 44.9741C50.6792 45.4609 50.882 45.9596 51.1228 46.4399C51.1784 46.5498 51.3692 46.6952 51.4586 46.6726C52.9464 46.301 54.4277 45.9068 55.9111 45.5159C55.9253 45.5116 55.9351 45.49 55.9634 45.4588C55.8719 45.2218 55.777 44.9752 55.667 44.6909C57.7488 45.0172 59.8001 45.3382 62.0237 45.6871C61.046 46.0705 60.2187 46.4119 59.3794 46.72C56.0593 47.9338 52.6575 48.8406 49.1402 49.2693C46.0795 49.6419 43.0233 49.7065 40.0389 48.762C37.9407 48.0986 36.212 46.9623 35.3553 44.8384C34.7863 43.4275 34.2326 42.0091 33.6734 40.595C33.4391 40.0026 33.2069 39.4092 32.9813 38.8373L32.9802 38.834Z" fill="#E5AF24"/>
</g>
<defs>
<filter id="filter0_d_221_263" x="0" y="0" width="103" height="57.5213" filterUnits="userSpaceOnUse" color-interpolation-filters="sRGB">
<feFlood flood-opacity="0" result="BackgroundImageFix"/>
<feColorMatrix in="SourceAlpha" type="matrix" values="0 0 0 0 0 0 0 0 0 0 0 0 0 0 0 0 0 0 127 0" result="hardAlpha"/>
<feOffset dy="4"/>
<feGaussianBlur stdDeviation="2"/>
<feComposite in2="hardAlpha" operator="out"/>
<feColorMatrix type="matrix" values="0 0 0 0 0 0 0 0 0 0 0 0 0 0 0 0 0 0 0.25 0"/>
<feBlend mode="normal" in2="BackgroundImageFix" result="effect1_dropShadow_221_263"/>
<feBlend mode="normal" in="SourceGraphic" in2="effect1_dropShadow_221_263" result="shape"/>
</filter>
<clipPath id="clip0_221_263">
<rect width="95" height="49.5213" fill="white" transform="translate(4)"/>
</clipPath>
</defs>
</svg>
