<svg width="26" height="26" viewBox="0 0 26 26" fill="none" xmlns="http://www.w3.org/2000/svg">
<g clip-path="url(#clip0_115_273)">
<path fill-rule="evenodd" clip-rule="evenodd" d="M19.916 24.3903C20.2648 24.6344 20.7144 24.6955 21.1153 24.5455C21.5161 24.3946 21.8108 24.0562 21.8996 23.6461C22.841 19.2732 25.1247 8.20504 25.9816 4.22725C26.0466 3.92745 25.9383 3.61586 25.6999 3.41563C25.4616 3.21541 25.1312 3.15759 24.8365 3.26573C20.2941 4.92751 6.305 10.1152 0.58717 12.2064C0.224254 12.3392 -0.0119129 12.6839 3.76208e-06 13.0619C0.0130038 13.4409 0.270837 13.7697 0.64242 13.8799C3.20667 14.638 6.57259 15.6927 6.57259 15.6927C6.57259 15.6927 8.14559 20.3879 8.96567 22.7756C9.06859 23.0754 9.30584 23.311 9.61892 23.3924C9.93092 23.4727 10.2646 23.3881 10.4975 23.1707C11.8148 21.9415 13.8515 20.041 13.8515 20.041C13.8515 20.041 17.7212 22.8452 19.916 24.3903ZM7.9885 15.0995L9.80742 21.0293L10.2115 17.2742C10.2115 17.2742 17.2391 11.0093 21.2453 7.43839C21.3623 7.33346 21.3785 7.15786 21.281 7.03472C21.1846 6.91159 21.0069 6.88268 20.8737 6.9662C16.2305 9.8968 7.9885 15.0995 7.9885 15.0995Z" fill="#E5AF24"/>
</g>
<defs>
<clipPath id="clip0_115_273">
<rect width="26" height="25.6977" fill="white"/>
</clipPath>
</defs>
</svg>
