<svg width="28" height="20" viewBox="0 0 28 20" fill="none" xmlns="http://www.w3.org/2000/svg">
<path d="M2.83862e-05 12.4306C2.83862e-05 10.7288 2.83862e-05 9.02312 2.83862e-05 7.3213C0.0193254 7.13134 0.0424819 6.94139 0.0540601 6.75144C0.111951 5.56133 0.223874 4.37897 0.494033 3.216C0.829801 1.7584 1.99534 0.618685 3.38087 0.459745C4.49238 0.331818 5.61161 0.231027 6.73084 0.184508C8.56406 0.110853 10.4089 0.0643339 12.2459 0.0604573C16.2288 0.044951 20.2117 -0.001568 24.1831 0.393843C25.9275 0.56829 27.205 1.60334 27.5369 3.33229C27.7415 4.39835 27.8804 5.4838 27.9344 6.56924C28.0116 8.1974 28.0039 9.82557 27.9962 11.4576C27.9885 13.0703 27.8958 14.6752 27.5678 16.2607C27.2359 17.8734 26.1012 19.0596 24.6385 19.234C23.5347 19.3658 22.427 19.4666 21.3155 19.5093C19.4476 19.5829 17.5796 19.6294 15.7117 19.6372C11.7481 19.6566 7.78445 19.6953 3.82856 19.3038C2.14586 19.1371 0.849098 18.1292 0.501751 16.5321C0.308781 15.6404 0.220015 14.7256 0.104232 13.8223C0.0463413 13.361 0.0309037 12.8958 -0.00769043 12.4306H2.83862e-05ZM19.2971 9.57747C16.3022 8.00745 13.3652 6.46845 10.4011 4.91782V14.21C13.3652 12.6671 16.3022 11.1359 19.2971 9.57747Z" fill="#E5AF24"/>
</svg>
